%TF.GenerationSoftware,KiCad,Pcbnew,10.0.6*%
%TF.CreationDate,2026-09-06T13:42:37-05:00*%
%TF.ProjectId,airmon,6169726d-6f6e-42e6-9b69-6361645f7063,rev?*%
%TF.SameCoordinates,Original*%
%TF.FileFunction,Legend,Bot*%
%TF.FilePolarity,Positive*%
%FSLAX46Y46*%
G04 Gerber Fmt 4.6, Leading zero omitted, Abs format (unit mm)*
G04 Created by KiCad (PCBNEW 10.0.6) date 2026-09-06 13:42:37*
%MOMM*%
%LPD*%
G01*
G04 APERTURE LIST*
%ADD10C,0.120000*%
G04 APERTURE END LIST*
D10*
X17609523Y-34163855D02*
X17609523Y-34811474D01*
X17609523Y-34811474D02*
X17571428Y-34887664D01*
X17571428Y-34887664D02*
X17533333Y-34925760D01*
X17533333Y-34925760D02*
X17457142Y-34963855D01*
X17457142Y-34963855D02*
X17304761Y-34963855D01*
X17304761Y-34963855D02*
X17228571Y-34925760D01*
X17228571Y-34925760D02*
X17190476Y-34887664D01*
X17190476Y-34887664D02*
X17152380Y-34811474D01*
X17152380Y-34811474D02*
X17152380Y-34163855D01*
X16352381Y-34963855D02*
X16809524Y-34963855D01*
X16580952Y-34963855D02*
X16580952Y-34163855D01*
X16580952Y-34163855D02*
X16657143Y-34278140D01*
X16657143Y-34278140D02*
X16733333Y-34354331D01*
X16733333Y-34354331D02*
X16809524Y-34392426D01*
X13009523Y-19115855D02*
X12552380Y-19115855D01*
X12780952Y-19915855D02*
X12780952Y-19115855D01*
X12285713Y-19915855D02*
X12285713Y-19115855D01*
X12285713Y-19115855D02*
X11980951Y-19115855D01*
X11980951Y-19115855D02*
X11904761Y-19153950D01*
X11904761Y-19153950D02*
X11866666Y-19192045D01*
X11866666Y-19192045D02*
X11828570Y-19268236D01*
X11828570Y-19268236D02*
X11828570Y-19382521D01*
X11828570Y-19382521D02*
X11866666Y-19458712D01*
X11866666Y-19458712D02*
X11904761Y-19496807D01*
X11904761Y-19496807D02*
X11980951Y-19534902D01*
X11980951Y-19534902D02*
X12285713Y-19534902D01*
X11066666Y-19915855D02*
X11523809Y-19915855D01*
X11295237Y-19915855D02*
X11295237Y-19115855D01*
X11295237Y-19115855D02*
X11371428Y-19230140D01*
X11371428Y-19230140D02*
X11447618Y-19306331D01*
X11447618Y-19306331D02*
X11523809Y-19344426D01*
X33009523Y-19115855D02*
X32552380Y-19115855D01*
X32780952Y-19915855D02*
X32780952Y-19115855D01*
X32285713Y-19915855D02*
X32285713Y-19115855D01*
X32285713Y-19115855D02*
X31980951Y-19115855D01*
X31980951Y-19115855D02*
X31904761Y-19153950D01*
X31904761Y-19153950D02*
X31866666Y-19192045D01*
X31866666Y-19192045D02*
X31828570Y-19268236D01*
X31828570Y-19268236D02*
X31828570Y-19382521D01*
X31828570Y-19382521D02*
X31866666Y-19458712D01*
X31866666Y-19458712D02*
X31904761Y-19496807D01*
X31904761Y-19496807D02*
X31980951Y-19534902D01*
X31980951Y-19534902D02*
X32285713Y-19534902D01*
X31104761Y-19115855D02*
X31485713Y-19115855D01*
X31485713Y-19115855D02*
X31523809Y-19496807D01*
X31523809Y-19496807D02*
X31485713Y-19458712D01*
X31485713Y-19458712D02*
X31409523Y-19420617D01*
X31409523Y-19420617D02*
X31219047Y-19420617D01*
X31219047Y-19420617D02*
X31142856Y-19458712D01*
X31142856Y-19458712D02*
X31104761Y-19496807D01*
X31104761Y-19496807D02*
X31066666Y-19572998D01*
X31066666Y-19572998D02*
X31066666Y-19763474D01*
X31066666Y-19763474D02*
X31104761Y-19839664D01*
X31104761Y-19839664D02*
X31142856Y-19877760D01*
X31142856Y-19877760D02*
X31219047Y-19915855D01*
X31219047Y-19915855D02*
X31409523Y-19915855D01*
X31409523Y-19915855D02*
X31485713Y-19877760D01*
X31485713Y-19877760D02*
X31523809Y-19839664D01*
X23009523Y-19115855D02*
X22552380Y-19115855D01*
X22780952Y-19915855D02*
X22780952Y-19115855D01*
X22285713Y-19915855D02*
X22285713Y-19115855D01*
X22285713Y-19115855D02*
X21980951Y-19115855D01*
X21980951Y-19115855D02*
X21904761Y-19153950D01*
X21904761Y-19153950D02*
X21866666Y-19192045D01*
X21866666Y-19192045D02*
X21828570Y-19268236D01*
X21828570Y-19268236D02*
X21828570Y-19382521D01*
X21828570Y-19382521D02*
X21866666Y-19458712D01*
X21866666Y-19458712D02*
X21904761Y-19496807D01*
X21904761Y-19496807D02*
X21980951Y-19534902D01*
X21980951Y-19534902D02*
X22285713Y-19534902D01*
X21561904Y-19115855D02*
X21066666Y-19115855D01*
X21066666Y-19115855D02*
X21333332Y-19420617D01*
X21333332Y-19420617D02*
X21219047Y-19420617D01*
X21219047Y-19420617D02*
X21142856Y-19458712D01*
X21142856Y-19458712D02*
X21104761Y-19496807D01*
X21104761Y-19496807D02*
X21066666Y-19572998D01*
X21066666Y-19572998D02*
X21066666Y-19763474D01*
X21066666Y-19763474D02*
X21104761Y-19839664D01*
X21104761Y-19839664D02*
X21142856Y-19877760D01*
X21142856Y-19877760D02*
X21219047Y-19915855D01*
X21219047Y-19915855D02*
X21447618Y-19915855D01*
X21447618Y-19915855D02*
X21523809Y-19877760D01*
X21523809Y-19877760D02*
X21561904Y-19839664D01*
X18009523Y-19115855D02*
X17552380Y-19115855D01*
X17780952Y-19915855D02*
X17780952Y-19115855D01*
X17285713Y-19915855D02*
X17285713Y-19115855D01*
X17285713Y-19115855D02*
X16980951Y-19115855D01*
X16980951Y-19115855D02*
X16904761Y-19153950D01*
X16904761Y-19153950D02*
X16866666Y-19192045D01*
X16866666Y-19192045D02*
X16828570Y-19268236D01*
X16828570Y-19268236D02*
X16828570Y-19382521D01*
X16828570Y-19382521D02*
X16866666Y-19458712D01*
X16866666Y-19458712D02*
X16904761Y-19496807D01*
X16904761Y-19496807D02*
X16980951Y-19534902D01*
X16980951Y-19534902D02*
X17285713Y-19534902D01*
X16523809Y-19192045D02*
X16485713Y-19153950D01*
X16485713Y-19153950D02*
X16409523Y-19115855D01*
X16409523Y-19115855D02*
X16219047Y-19115855D01*
X16219047Y-19115855D02*
X16142856Y-19153950D01*
X16142856Y-19153950D02*
X16104761Y-19192045D01*
X16104761Y-19192045D02*
X16066666Y-19268236D01*
X16066666Y-19268236D02*
X16066666Y-19344426D01*
X16066666Y-19344426D02*
X16104761Y-19458712D01*
X16104761Y-19458712D02*
X16561904Y-19915855D01*
X16561904Y-19915855D02*
X16066666Y-19915855D01*
X16793855Y-27866667D02*
X16412902Y-27600000D01*
X16793855Y-27409524D02*
X15993855Y-27409524D01*
X15993855Y-27409524D02*
X15993855Y-27714286D01*
X15993855Y-27714286D02*
X16031950Y-27790476D01*
X16031950Y-27790476D02*
X16070045Y-27828571D01*
X16070045Y-27828571D02*
X16146236Y-27866667D01*
X16146236Y-27866667D02*
X16260521Y-27866667D01*
X16260521Y-27866667D02*
X16336712Y-27828571D01*
X16336712Y-27828571D02*
X16374807Y-27790476D01*
X16374807Y-27790476D02*
X16412902Y-27714286D01*
X16412902Y-27714286D02*
X16412902Y-27409524D01*
X16793855Y-28628571D02*
X16793855Y-28171428D01*
X16793855Y-28400000D02*
X15993855Y-28400000D01*
X15993855Y-28400000D02*
X16108140Y-28323809D01*
X16108140Y-28323809D02*
X16184331Y-28247619D01*
X16184331Y-28247619D02*
X16222426Y-28171428D01*
X14268855Y-36536524D02*
X13468855Y-36536524D01*
X13468855Y-36536524D02*
X13468855Y-36727000D01*
X13468855Y-36727000D02*
X13506950Y-36841286D01*
X13506950Y-36841286D02*
X13583140Y-36917476D01*
X13583140Y-36917476D02*
X13659331Y-36955571D01*
X13659331Y-36955571D02*
X13811712Y-36993667D01*
X13811712Y-36993667D02*
X13925998Y-36993667D01*
X13925998Y-36993667D02*
X14078379Y-36955571D01*
X14078379Y-36955571D02*
X14154569Y-36917476D01*
X14154569Y-36917476D02*
X14230760Y-36841286D01*
X14230760Y-36841286D02*
X14268855Y-36727000D01*
X14268855Y-36727000D02*
X14268855Y-36536524D01*
X14268855Y-37755571D02*
X14268855Y-37298428D01*
X14268855Y-37527000D02*
X13468855Y-37527000D01*
X13468855Y-37527000D02*
X13583140Y-37450809D01*
X13583140Y-37450809D02*
X13659331Y-37374619D01*
X13659331Y-37374619D02*
X13697426Y-37298428D01*
X25266666Y-26114807D02*
X25533332Y-26114807D01*
X25533332Y-26533855D02*
X25533332Y-25733855D01*
X25533332Y-25733855D02*
X25152380Y-25733855D01*
X24428571Y-26533855D02*
X24885714Y-26533855D01*
X24657142Y-26533855D02*
X24657142Y-25733855D01*
X24657142Y-25733855D02*
X24733333Y-25848140D01*
X24733333Y-25848140D02*
X24809523Y-25924331D01*
X24809523Y-25924331D02*
X24885714Y-25962426D01*
X19676190Y-45940045D02*
X19752380Y-45901950D01*
X19752380Y-45901950D02*
X19828571Y-45825760D01*
X19828571Y-45825760D02*
X19942857Y-45711474D01*
X19942857Y-45711474D02*
X20019047Y-45673379D01*
X20019047Y-45673379D02*
X20095238Y-45673379D01*
X20057142Y-45863855D02*
X20133333Y-45825760D01*
X20133333Y-45825760D02*
X20209523Y-45749569D01*
X20209523Y-45749569D02*
X20247619Y-45597188D01*
X20247619Y-45597188D02*
X20247619Y-45330521D01*
X20247619Y-45330521D02*
X20209523Y-45178140D01*
X20209523Y-45178140D02*
X20133333Y-45101950D01*
X20133333Y-45101950D02*
X20057142Y-45063855D01*
X20057142Y-45063855D02*
X19904761Y-45063855D01*
X19904761Y-45063855D02*
X19828571Y-45101950D01*
X19828571Y-45101950D02*
X19752380Y-45178140D01*
X19752380Y-45178140D02*
X19714285Y-45330521D01*
X19714285Y-45330521D02*
X19714285Y-45597188D01*
X19714285Y-45597188D02*
X19752380Y-45749569D01*
X19752380Y-45749569D02*
X19828571Y-45825760D01*
X19828571Y-45825760D02*
X19904761Y-45863855D01*
X19904761Y-45863855D02*
X20057142Y-45863855D01*
X18952381Y-45863855D02*
X19409524Y-45863855D01*
X19180952Y-45863855D02*
X19180952Y-45063855D01*
X19180952Y-45063855D02*
X19257143Y-45178140D01*
X19257143Y-45178140D02*
X19333333Y-45254331D01*
X19333333Y-45254331D02*
X19409524Y-45292426D01*
X7133332Y-13933855D02*
X7399999Y-13552902D01*
X7590475Y-13933855D02*
X7590475Y-13133855D01*
X7590475Y-13133855D02*
X7285713Y-13133855D01*
X7285713Y-13133855D02*
X7209523Y-13171950D01*
X7209523Y-13171950D02*
X7171428Y-13210045D01*
X7171428Y-13210045D02*
X7133332Y-13286236D01*
X7133332Y-13286236D02*
X7133332Y-13400521D01*
X7133332Y-13400521D02*
X7171428Y-13476712D01*
X7171428Y-13476712D02*
X7209523Y-13514807D01*
X7209523Y-13514807D02*
X7285713Y-13552902D01*
X7285713Y-13552902D02*
X7590475Y-13552902D01*
X6866666Y-13133855D02*
X6371428Y-13133855D01*
X6371428Y-13133855D02*
X6638094Y-13438617D01*
X6638094Y-13438617D02*
X6523809Y-13438617D01*
X6523809Y-13438617D02*
X6447618Y-13476712D01*
X6447618Y-13476712D02*
X6409523Y-13514807D01*
X6409523Y-13514807D02*
X6371428Y-13590998D01*
X6371428Y-13590998D02*
X6371428Y-13781474D01*
X6371428Y-13781474D02*
X6409523Y-13857664D01*
X6409523Y-13857664D02*
X6447618Y-13895760D01*
X6447618Y-13895760D02*
X6523809Y-13933855D01*
X6523809Y-13933855D02*
X6752380Y-13933855D01*
X6752380Y-13933855D02*
X6828571Y-13895760D01*
X6828571Y-13895760D02*
X6866666Y-13857664D01*
X34266666Y-38663855D02*
X34266666Y-39235283D01*
X34266666Y-39235283D02*
X34304761Y-39349569D01*
X34304761Y-39349569D02*
X34380952Y-39425760D01*
X34380952Y-39425760D02*
X34495237Y-39463855D01*
X34495237Y-39463855D02*
X34571428Y-39463855D01*
X33923809Y-38740045D02*
X33885713Y-38701950D01*
X33885713Y-38701950D02*
X33809523Y-38663855D01*
X33809523Y-38663855D02*
X33619047Y-38663855D01*
X33619047Y-38663855D02*
X33542856Y-38701950D01*
X33542856Y-38701950D02*
X33504761Y-38740045D01*
X33504761Y-38740045D02*
X33466666Y-38816236D01*
X33466666Y-38816236D02*
X33466666Y-38892426D01*
X33466666Y-38892426D02*
X33504761Y-39006712D01*
X33504761Y-39006712D02*
X33961904Y-39463855D01*
X33961904Y-39463855D02*
X33466666Y-39463855D01*
X16717664Y-32866667D02*
X16755760Y-32828571D01*
X16755760Y-32828571D02*
X16793855Y-32714286D01*
X16793855Y-32714286D02*
X16793855Y-32638095D01*
X16793855Y-32638095D02*
X16755760Y-32523809D01*
X16755760Y-32523809D02*
X16679569Y-32447619D01*
X16679569Y-32447619D02*
X16603379Y-32409524D01*
X16603379Y-32409524D02*
X16450998Y-32371428D01*
X16450998Y-32371428D02*
X16336712Y-32371428D01*
X16336712Y-32371428D02*
X16184331Y-32409524D01*
X16184331Y-32409524D02*
X16108140Y-32447619D01*
X16108140Y-32447619D02*
X16031950Y-32523809D01*
X16031950Y-32523809D02*
X15993855Y-32638095D01*
X15993855Y-32638095D02*
X15993855Y-32714286D01*
X15993855Y-32714286D02*
X16031950Y-32828571D01*
X16031950Y-32828571D02*
X16070045Y-32866667D01*
X16070045Y-33171428D02*
X16031950Y-33209524D01*
X16031950Y-33209524D02*
X15993855Y-33285714D01*
X15993855Y-33285714D02*
X15993855Y-33476190D01*
X15993855Y-33476190D02*
X16031950Y-33552381D01*
X16031950Y-33552381D02*
X16070045Y-33590476D01*
X16070045Y-33590476D02*
X16146236Y-33628571D01*
X16146236Y-33628571D02*
X16222426Y-33628571D01*
X16222426Y-33628571D02*
X16336712Y-33590476D01*
X16336712Y-33590476D02*
X16793855Y-33133333D01*
X16793855Y-33133333D02*
X16793855Y-33628571D01*
X25266666Y-38663855D02*
X25266666Y-39235283D01*
X25266666Y-39235283D02*
X25304761Y-39349569D01*
X25304761Y-39349569D02*
X25380952Y-39425760D01*
X25380952Y-39425760D02*
X25495237Y-39463855D01*
X25495237Y-39463855D02*
X25571428Y-39463855D01*
X24466666Y-39463855D02*
X24923809Y-39463855D01*
X24695237Y-39463855D02*
X24695237Y-38663855D01*
X24695237Y-38663855D02*
X24771428Y-38778140D01*
X24771428Y-38778140D02*
X24847618Y-38854331D01*
X24847618Y-38854331D02*
X24923809Y-38892426D01*
X28009523Y-19115855D02*
X27552380Y-19115855D01*
X27780952Y-19915855D02*
X27780952Y-19115855D01*
X27285713Y-19915855D02*
X27285713Y-19115855D01*
X27285713Y-19115855D02*
X26980951Y-19115855D01*
X26980951Y-19115855D02*
X26904761Y-19153950D01*
X26904761Y-19153950D02*
X26866666Y-19192045D01*
X26866666Y-19192045D02*
X26828570Y-19268236D01*
X26828570Y-19268236D02*
X26828570Y-19382521D01*
X26828570Y-19382521D02*
X26866666Y-19458712D01*
X26866666Y-19458712D02*
X26904761Y-19496807D01*
X26904761Y-19496807D02*
X26980951Y-19534902D01*
X26980951Y-19534902D02*
X27285713Y-19534902D01*
X26142856Y-19382521D02*
X26142856Y-19915855D01*
X26333332Y-19077760D02*
X26523809Y-19649188D01*
X26523809Y-19649188D02*
X26028570Y-19649188D01*
X29266666Y-36543855D02*
X29266666Y-37115283D01*
X29266666Y-37115283D02*
X29304761Y-37229569D01*
X29304761Y-37229569D02*
X29380952Y-37305760D01*
X29380952Y-37305760D02*
X29495237Y-37343855D01*
X29495237Y-37343855D02*
X29571428Y-37343855D01*
X28961904Y-36543855D02*
X28466666Y-36543855D01*
X28466666Y-36543855D02*
X28733332Y-36848617D01*
X28733332Y-36848617D02*
X28619047Y-36848617D01*
X28619047Y-36848617D02*
X28542856Y-36886712D01*
X28542856Y-36886712D02*
X28504761Y-36924807D01*
X28504761Y-36924807D02*
X28466666Y-37000998D01*
X28466666Y-37000998D02*
X28466666Y-37191474D01*
X28466666Y-37191474D02*
X28504761Y-37267664D01*
X28504761Y-37267664D02*
X28542856Y-37305760D01*
X28542856Y-37305760D02*
X28619047Y-37343855D01*
X28619047Y-37343855D02*
X28847618Y-37343855D01*
X28847618Y-37343855D02*
X28923809Y-37305760D01*
X28923809Y-37305760D02*
X28961904Y-37267664D01*
X13133332Y-13933855D02*
X13399999Y-13552902D01*
X13590475Y-13933855D02*
X13590475Y-13133855D01*
X13590475Y-13133855D02*
X13285713Y-13133855D01*
X13285713Y-13133855D02*
X13209523Y-13171950D01*
X13209523Y-13171950D02*
X13171428Y-13210045D01*
X13171428Y-13210045D02*
X13133332Y-13286236D01*
X13133332Y-13286236D02*
X13133332Y-13400521D01*
X13133332Y-13400521D02*
X13171428Y-13476712D01*
X13171428Y-13476712D02*
X13209523Y-13514807D01*
X13209523Y-13514807D02*
X13285713Y-13552902D01*
X13285713Y-13552902D02*
X13590475Y-13552902D01*
X12447618Y-13400521D02*
X12447618Y-13933855D01*
X12638094Y-13095760D02*
X12828571Y-13667188D01*
X12828571Y-13667188D02*
X12333332Y-13667188D01*
X20793855Y-27866667D02*
X20412902Y-27600000D01*
X20793855Y-27409524D02*
X19993855Y-27409524D01*
X19993855Y-27409524D02*
X19993855Y-27714286D01*
X19993855Y-27714286D02*
X20031950Y-27790476D01*
X20031950Y-27790476D02*
X20070045Y-27828571D01*
X20070045Y-27828571D02*
X20146236Y-27866667D01*
X20146236Y-27866667D02*
X20260521Y-27866667D01*
X20260521Y-27866667D02*
X20336712Y-27828571D01*
X20336712Y-27828571D02*
X20374807Y-27790476D01*
X20374807Y-27790476D02*
X20412902Y-27714286D01*
X20412902Y-27714286D02*
X20412902Y-27409524D01*
X20070045Y-28171428D02*
X20031950Y-28209524D01*
X20031950Y-28209524D02*
X19993855Y-28285714D01*
X19993855Y-28285714D02*
X19993855Y-28476190D01*
X19993855Y-28476190D02*
X20031950Y-28552381D01*
X20031950Y-28552381D02*
X20070045Y-28590476D01*
X20070045Y-28590476D02*
X20146236Y-28628571D01*
X20146236Y-28628571D02*
X20222426Y-28628571D01*
X20222426Y-28628571D02*
X20336712Y-28590476D01*
X20336712Y-28590476D02*
X20793855Y-28133333D01*
X20793855Y-28133333D02*
X20793855Y-28628571D01*
X8133332Y-26987664D02*
X8171428Y-27025760D01*
X8171428Y-27025760D02*
X8285713Y-27063855D01*
X8285713Y-27063855D02*
X8361904Y-27063855D01*
X8361904Y-27063855D02*
X8476190Y-27025760D01*
X8476190Y-27025760D02*
X8552380Y-26949569D01*
X8552380Y-26949569D02*
X8590475Y-26873379D01*
X8590475Y-26873379D02*
X8628571Y-26720998D01*
X8628571Y-26720998D02*
X8628571Y-26606712D01*
X8628571Y-26606712D02*
X8590475Y-26454331D01*
X8590475Y-26454331D02*
X8552380Y-26378140D01*
X8552380Y-26378140D02*
X8476190Y-26301950D01*
X8476190Y-26301950D02*
X8361904Y-26263855D01*
X8361904Y-26263855D02*
X8285713Y-26263855D01*
X8285713Y-26263855D02*
X8171428Y-26301950D01*
X8171428Y-26301950D02*
X8133332Y-26340045D01*
X7371428Y-27063855D02*
X7828571Y-27063855D01*
X7599999Y-27063855D02*
X7599999Y-26263855D01*
X7599999Y-26263855D02*
X7676190Y-26378140D01*
X7676190Y-26378140D02*
X7752380Y-26454331D01*
X7752380Y-26454331D02*
X7828571Y-26492426D01*
X38266666Y-36543855D02*
X38266666Y-37115283D01*
X38266666Y-37115283D02*
X38304761Y-37229569D01*
X38304761Y-37229569D02*
X38380952Y-37305760D01*
X38380952Y-37305760D02*
X38495237Y-37343855D01*
X38495237Y-37343855D02*
X38571428Y-37343855D01*
X37542856Y-36810521D02*
X37542856Y-37343855D01*
X37733332Y-36505760D02*
X37923809Y-37077188D01*
X37923809Y-37077188D02*
X37428570Y-37077188D01*
X21717664Y-32866667D02*
X21755760Y-32828571D01*
X21755760Y-32828571D02*
X21793855Y-32714286D01*
X21793855Y-32714286D02*
X21793855Y-32638095D01*
X21793855Y-32638095D02*
X21755760Y-32523809D01*
X21755760Y-32523809D02*
X21679569Y-32447619D01*
X21679569Y-32447619D02*
X21603379Y-32409524D01*
X21603379Y-32409524D02*
X21450998Y-32371428D01*
X21450998Y-32371428D02*
X21336712Y-32371428D01*
X21336712Y-32371428D02*
X21184331Y-32409524D01*
X21184331Y-32409524D02*
X21108140Y-32447619D01*
X21108140Y-32447619D02*
X21031950Y-32523809D01*
X21031950Y-32523809D02*
X20993855Y-32638095D01*
X20993855Y-32638095D02*
X20993855Y-32714286D01*
X20993855Y-32714286D02*
X21031950Y-32828571D01*
X21031950Y-32828571D02*
X21070045Y-32866667D01*
X20993855Y-33133333D02*
X20993855Y-33628571D01*
X20993855Y-33628571D02*
X21298617Y-33361905D01*
X21298617Y-33361905D02*
X21298617Y-33476190D01*
X21298617Y-33476190D02*
X21336712Y-33552381D01*
X21336712Y-33552381D02*
X21374807Y-33590476D01*
X21374807Y-33590476D02*
X21450998Y-33628571D01*
X21450998Y-33628571D02*
X21641474Y-33628571D01*
X21641474Y-33628571D02*
X21717664Y-33590476D01*
X21717664Y-33590476D02*
X21755760Y-33552381D01*
X21755760Y-33552381D02*
X21793855Y-33476190D01*
X21793855Y-33476190D02*
X21793855Y-33247619D01*
X21793855Y-33247619D02*
X21755760Y-33171428D01*
X21755760Y-33171428D02*
X21717664Y-33133333D01*
%TO.C,U1*%
X16090000Y-35440000D02*
X16090000Y-35490000D01*
X16090000Y-36610000D02*
X16090000Y-37390000D01*
X16090000Y-38510000D02*
X16090000Y-38560000D01*
X16090000Y-38560000D02*
X17910000Y-38560000D01*
X17910000Y-35440000D02*
X16090000Y-35440000D01*
X17910000Y-35490000D02*
X17910000Y-35440000D01*
X17910000Y-38560000D02*
X17910000Y-38510000D01*
X18450000Y-35490000D02*
X18690000Y-35160000D01*
X18210000Y-35160000D01*
X18450000Y-35490000D01*
G36*
X18450000Y-35490000D02*
G01*
X18210000Y-35160000D01*
X18690000Y-35160000D01*
X18450000Y-35490000D01*
G37*
%TO.C,TP1*%
X12700000Y-21000000D02*
G75*
G02*
X11300000Y-21000000I-700000J0D01*
G01*
X11300000Y-21000000D02*
G75*
G02*
X12700000Y-21000000I700000J0D01*
G01*
%TO.C,TP5*%
X32700000Y-21000000D02*
G75*
G02*
X31300000Y-21000000I-700000J0D01*
G01*
X31300000Y-21000000D02*
G75*
G02*
X32700000Y-21000000I700000J0D01*
G01*
%TO.C,TP3*%
X22700000Y-21000000D02*
G75*
G02*
X21300000Y-21000000I-700000J0D01*
G01*
X21300000Y-21000000D02*
G75*
G02*
X22700000Y-21000000I700000J0D01*
G01*
%TO.C,TP2*%
X17700000Y-21000000D02*
G75*
G02*
X16300000Y-21000000I-700000J0D01*
G01*
X16300000Y-21000000D02*
G75*
G02*
X17700000Y-21000000I700000J0D01*
G01*
%TO.C,R1*%
X14477500Y-28237258D02*
X14477500Y-27762742D01*
X15522500Y-28237258D02*
X15522500Y-27762742D01*
%TO.C,D1*%
X11000000Y-39210000D02*
X11000000Y-35350000D01*
X13000000Y-39210000D02*
X11000000Y-39210000D01*
X13000000Y-39210000D02*
X13000000Y-35350000D01*
%TO.C,F1*%
X25602064Y-27090000D02*
X24397936Y-27090000D01*
X25602064Y-28910000D02*
X24397936Y-28910000D01*
%TO.C,Q1*%
X18240000Y-39440000D02*
X18240000Y-40440000D01*
X18240000Y-41560000D02*
X18240000Y-42560000D01*
X18240000Y-42560000D02*
X19760000Y-42560000D01*
X19760000Y-39440000D02*
X18240000Y-39440000D01*
X19760000Y-39490000D02*
X19760000Y-39440000D01*
X19760000Y-41390000D02*
X19760000Y-40610000D01*
X19760000Y-42560000D02*
X19760000Y-42510000D01*
X20300000Y-40620000D02*
X20060000Y-40950000D01*
X20540000Y-40950000D01*
X20300000Y-40620000D01*
G36*
X20540000Y-40950000D02*
G01*
X20060000Y-40950000D01*
X20300000Y-40620000D01*
X20540000Y-40950000D01*
G37*
%TO.C,R3*%
X7237258Y-14477500D02*
X6762742Y-14477500D01*
X7237258Y-15522500D02*
X6762742Y-15522500D01*
%TO.C,J2*%
X30940000Y-41500000D02*
X31550000Y-41500000D01*
X30940000Y-42800000D02*
X31550000Y-42800000D01*
X31550000Y-40800000D02*
X33500000Y-40800000D01*
X31550000Y-44300000D02*
X31550000Y-40800000D01*
X33500000Y-40800000D02*
X33500000Y-40190000D01*
X33900000Y-43800000D02*
X33900000Y-44300000D01*
X34000000Y-44300000D02*
X34000000Y-43800000D01*
X34100000Y-43800000D02*
X33900000Y-43800000D01*
X34100000Y-44300000D02*
X34100000Y-43800000D01*
X34500000Y-40190000D02*
X34500000Y-40800000D01*
X34500000Y-40800000D02*
X36450000Y-40800000D01*
X35300000Y-39990000D02*
X35600000Y-39990000D01*
X35300000Y-40090000D02*
X35600000Y-40090000D01*
X35300000Y-40190000D02*
X35300000Y-39990000D01*
X35600000Y-39990000D02*
X35600000Y-40190000D01*
X36110000Y-39890000D02*
X37360000Y-39890000D01*
X36450000Y-40800000D02*
X36450000Y-44300000D01*
X36450000Y-44300000D02*
X31550000Y-44300000D01*
X37060000Y-41500000D02*
X36450000Y-41500000D01*
X37060000Y-42800000D02*
X36450000Y-42800000D01*
X37360000Y-39890000D02*
X37360000Y-41140000D01*
X30940000Y-40190000D02*
X37060000Y-40190000D01*
X37060000Y-44910000D01*
X30940000Y-44910000D01*
X30940000Y-40190000D01*
%TO.C,C2*%
X14490000Y-33140580D02*
X14490000Y-32859420D01*
X15510000Y-33140580D02*
X15510000Y-32859420D01*
%TO.C,J1*%
X21940000Y-41500000D02*
X22550000Y-41500000D01*
X21940000Y-42800000D02*
X22550000Y-42800000D01*
X22550000Y-40800000D02*
X24500000Y-40800000D01*
X22550000Y-44300000D02*
X22550000Y-40800000D01*
X24500000Y-40800000D02*
X24500000Y-40190000D01*
X24900000Y-43800000D02*
X24900000Y-44300000D01*
X25000000Y-44300000D02*
X25000000Y-43800000D01*
X25100000Y-43800000D02*
X24900000Y-43800000D01*
X25100000Y-44300000D02*
X25100000Y-43800000D01*
X25500000Y-40190000D02*
X25500000Y-40800000D01*
X25500000Y-40800000D02*
X27450000Y-40800000D01*
X26300000Y-39990000D02*
X26600000Y-39990000D01*
X26300000Y-40090000D02*
X26600000Y-40090000D01*
X26300000Y-40190000D02*
X26300000Y-39990000D01*
X26600000Y-39990000D02*
X26600000Y-40190000D01*
X27110000Y-39890000D02*
X28360000Y-39890000D01*
X27450000Y-40800000D02*
X27450000Y-44300000D01*
X27450000Y-44300000D02*
X22550000Y-44300000D01*
X28060000Y-41500000D02*
X27450000Y-41500000D01*
X28060000Y-42800000D02*
X27450000Y-42800000D01*
X28360000Y-39890000D02*
X28360000Y-41140000D01*
X21940000Y-40190000D02*
X28060000Y-40190000D01*
X28060000Y-44910000D01*
X21940000Y-44910000D01*
X21940000Y-40190000D01*
%TO.C,TP4*%
X27700000Y-21000000D02*
G75*
G02*
X26300000Y-21000000I-700000J0D01*
G01*
X26300000Y-21000000D02*
G75*
G02*
X27700000Y-21000000I700000J0D01*
G01*
%TO.C,J3*%
X25890000Y-32285000D02*
X25890000Y-34785000D01*
X25890000Y-34785000D02*
X26940000Y-34785000D01*
X26940000Y-34785000D02*
X26940000Y-35775000D01*
X27060000Y-30315000D02*
X30940000Y-30315000D01*
X32110000Y-32285000D02*
X32110000Y-34785000D01*
X32110000Y-34785000D02*
X31060000Y-34785000D01*
%TO.C,R4*%
X13237258Y-14477500D02*
X12762742Y-14477500D01*
X13237258Y-15522500D02*
X12762742Y-15522500D01*
%TO.C,R2*%
X18477500Y-28237258D02*
X18477500Y-27762742D01*
X19522500Y-28237258D02*
X19522500Y-27762742D01*
%TO.C,C1*%
X8711252Y-27640000D02*
X7288748Y-27640000D01*
X8711252Y-30360000D02*
X7288748Y-30360000D01*
%TO.C,J4*%
X34890000Y-32285000D02*
X34890000Y-34785000D01*
X34890000Y-34785000D02*
X35940000Y-34785000D01*
X35940000Y-34785000D02*
X35940000Y-35775000D01*
X36060000Y-30315000D02*
X39940000Y-30315000D01*
X41110000Y-32285000D02*
X41110000Y-34785000D01*
X41110000Y-34785000D02*
X40060000Y-34785000D01*
%TO.C,C3*%
X19490000Y-33140580D02*
X19490000Y-32859420D01*
X20510000Y-33140580D02*
X20510000Y-32859420D01*
%TD*%
M02*
