%TF.GenerationSoftware,KiCad,Pcbnew,10.0.6*%
%TF.CreationDate,2026-09-06T13:42:37-05:00*%
%TF.ProjectId,airmon,6169726d-6f6e-42e6-9b69-6361645f7063,rev?*%
%TF.SameCoordinates,Original*%
%TF.FileFunction,Copper,L2,Bot*%
%TF.FilePolarity,Positive*%
%FSLAX46Y46*%
G04 Gerber Fmt 4.6, Leading zero omitted, Abs format (unit mm)*
G04 Created by KiCad (PCBNEW 10.0.6) date 2026-09-06 13:42:37*
%MOMM*%
%LPD*%
G01*
G04 APERTURE LIST*
G04 Aperture macros list*
%AMRoundRect*
0 Rectangle with rounded corners*
0 $1 Rounding radius*
0 $2 $3 $4 $5 $6 $7 $8 $9 X,Y pos of 4 corners*
0 Add a 4 corners polygon primitive as box body*
4,1,4,$2,$3,$4,$5,$6,$7,$8,$9,$2,$3,0*
0 Add four circle primitives for the rounded corners*
1,1,$1+$1,$2,$3*
1,1,$1+$1,$4,$5*
1,1,$1+$1,$6,$7*
1,1,$1+$1,$8,$9*
0 Add four rect primitives between the rounded corners*
20,1,$1+$1,$2,$3,$4,$5,0*
20,1,$1+$1,$4,$5,$6,$7,0*
20,1,$1+$1,$6,$7,$8,$9,0*
20,1,$1+$1,$8,$9,$2,$3,0*%
G04 Aperture macros list end*
%TA.AperFunction,SMDPad,CuDef*%
%ADD10RoundRect,0.150000X0.512500X0.150000X-0.512500X0.150000X-0.512500X-0.150000X0.512500X-0.150000X0*%
%TD*%
%TA.AperFunction,SMDPad,CuDef*%
%ADD11C,1.000000*%
%TD*%
%TA.AperFunction,SMDPad,CuDef*%
%ADD12RoundRect,0.200000X0.275000X-0.200000X0.275000X0.200000X-0.275000X0.200000X-0.275000X-0.200000X0*%
%TD*%
%TA.AperFunction,SMDPad,CuDef*%
%ADD13RoundRect,0.250000X0.300000X-0.300000X0.300000X0.300000X-0.300000X0.300000X-0.300000X-0.300000X0*%
%TD*%
%TA.AperFunction,SMDPad,CuDef*%
%ADD14RoundRect,0.250000X0.375000X0.625000X-0.375000X0.625000X-0.375000X-0.625000X0.375000X-0.625000X0*%
%TD*%
%TA.AperFunction,SMDPad,CuDef*%
%ADD15RoundRect,0.150000X0.587500X0.150000X-0.587500X0.150000X-0.587500X-0.150000X0.587500X-0.150000X0*%
%TD*%
%TA.AperFunction,SMDPad,CuDef*%
%ADD16RoundRect,0.200000X0.200000X0.275000X-0.200000X0.275000X-0.200000X-0.275000X0.200000X-0.275000X0*%
%TD*%
%TA.AperFunction,ComponentPad*%
%ADD17RoundRect,0.250000X0.350000X0.625000X-0.350000X0.625000X-0.350000X-0.625000X0.350000X-0.625000X0*%
%TD*%
%TA.AperFunction,ComponentPad*%
%ADD18O,1.200000X1.750000*%
%TD*%
%TA.AperFunction,SMDPad,CuDef*%
%ADD19RoundRect,0.225000X0.250000X-0.225000X0.250000X0.225000X-0.250000X0.225000X-0.250000X-0.225000X0*%
%TD*%
%TA.AperFunction,SMDPad,CuDef*%
%ADD20RoundRect,0.150000X-0.150000X-0.625000X0.150000X-0.625000X0.150000X0.625000X-0.150000X0.625000X0*%
%TD*%
%TA.AperFunction,SMDPad,CuDef*%
%ADD21RoundRect,0.250000X-0.350000X-0.650000X0.350000X-0.650000X0.350000X0.650000X-0.350000X0.650000X0*%
%TD*%
%TA.AperFunction,SMDPad,CuDef*%
%ADD22RoundRect,0.250000X0.325000X1.100000X-0.325000X1.100000X-0.325000X-1.100000X0.325000X-1.100000X0*%
%TD*%
%TA.AperFunction,ViaPad*%
%ADD23C,0.600000*%
%TD*%
%TA.AperFunction,Conductor*%
%ADD24C,0.250000*%
%TD*%
%TA.AperFunction,Conductor*%
%ADD25C,0.500000*%
%TD*%
G04 APERTURE END LIST*
D10*
%TO.P,U1,1*%
%TO.N,SENSOR5V*%
X18137500Y-36050000D03*
%TO.P,U1,2*%
%TO.N,GND*%
X18137500Y-37000000D03*
%TO.P,U1,3*%
%TO.N,SENSOR5V*%
X18137500Y-37950000D03*
%TO.P,U1,4*%
%TO.N,N/C*%
X15862500Y-37950000D03*
%TO.P,U1,5*%
%TO.N,SENSOR3V3*%
X15862500Y-36050000D03*
%TD*%
D11*
%TO.P,TP1,1*%
%TO.N,GND*%
X12000000Y-21000000D03*
%TD*%
%TO.P,TP5,1*%
%TO.N,SCL*%
X32000000Y-21000000D03*
%TD*%
%TO.P,TP3,1*%
%TO.N,SENSOR3V3*%
X22000000Y-21000000D03*
%TD*%
%TO.P,TP2,1*%
%TO.N,SENSOR5V*%
X17000000Y-21000000D03*
%TD*%
D12*
%TO.P,R1,1*%
%TO.N,SENSOR3V3*%
X15000000Y-28825000D03*
%TO.P,R1,2*%
%TO.N,SDA*%
X15000000Y-27175000D03*
%TD*%
D13*
%TO.P,D1,1*%
%TO.N,SENSOR5V*%
X12000000Y-38400000D03*
%TO.P,D1,2*%
%TO.N,GND*%
X12000000Y-35600000D03*
%TD*%
D14*
%TO.P,F1,1*%
%TO.N,USB5V*%
X26400000Y-28000000D03*
%TO.P,F1,2*%
%TO.N,FUSED5V*%
X23600000Y-28000000D03*
%TD*%
D15*
%TO.P,Q1,1*%
%TO.N,GND*%
X19937500Y-40050000D03*
%TO.P,Q1,2*%
%TO.N,SENSOR5V*%
X19937500Y-41950000D03*
%TO.P,Q1,3*%
%TO.N,FUSED5V*%
X18062500Y-41000000D03*
%TD*%
D16*
%TO.P,R3,1*%
%TO.N,SENSOR3V3*%
X7825000Y-15000000D03*
%TO.P,R3,2*%
%TO.N,PM_RESET*%
X6175000Y-15000000D03*
%TD*%
D17*
%TO.P,J2,1*%
%TO.N,SDA*%
X35000000Y-42000000D03*
D18*
%TO.P,J2,2*%
%TO.N,SCL*%
X33000000Y-42000000D03*
%TD*%
D19*
%TO.P,C2,1*%
%TO.N,SENSOR5V*%
X15000000Y-33775000D03*
%TO.P,C2,2*%
%TO.N,GND*%
X15000000Y-32225000D03*
%TD*%
D17*
%TO.P,J1,1*%
%TO.N,USB5V*%
X26000000Y-42000000D03*
D18*
%TO.P,J1,2*%
%TO.N,GND*%
X24000000Y-42000000D03*
%TD*%
D11*
%TO.P,TP4,1*%
%TO.N,SDA*%
X27000000Y-21000000D03*
%TD*%
D20*
%TO.P,J3,1*%
%TO.N,GND*%
X27500000Y-35000000D03*
%TO.P,J3,2*%
%TO.N,SENSOR3V3*%
X28500000Y-35000000D03*
%TO.P,J3,3*%
%TO.N,SDA*%
X29500000Y-35000000D03*
%TO.P,J3,4*%
%TO.N,SCL*%
X30500000Y-35000000D03*
D21*
%TO.P,J3,MP*%
%TO.N,N/C*%
X26200000Y-31125000D03*
X31800000Y-31125000D03*
%TD*%
D16*
%TO.P,R4,1*%
%TO.N,SENSOR3V3*%
X13825000Y-15000000D03*
%TO.P,R4,2*%
%TO.N,PM_SET*%
X12175000Y-15000000D03*
%TD*%
D12*
%TO.P,R2,1*%
%TO.N,SENSOR3V3*%
X19000000Y-28825000D03*
%TO.P,R2,2*%
%TO.N,SCL*%
X19000000Y-27175000D03*
%TD*%
D22*
%TO.P,C1,1*%
%TO.N,SENSOR5V*%
X9475000Y-29000000D03*
%TO.P,C1,2*%
%TO.N,GND*%
X6525000Y-29000000D03*
%TD*%
D20*
%TO.P,J4,1*%
%TO.N,GND*%
X36500000Y-35000000D03*
%TO.P,J4,2*%
%TO.N,SENSOR3V3*%
X37500000Y-35000000D03*
%TO.P,J4,3*%
%TO.N,SDA*%
X38500000Y-35000000D03*
%TO.P,J4,4*%
%TO.N,SCL*%
X39500000Y-35000000D03*
D21*
%TO.P,J4,MP*%
%TO.N,N/C*%
X35200000Y-31125000D03*
X40800000Y-31125000D03*
%TD*%
D19*
%TO.P,C3,1*%
%TO.N,SENSOR3V3*%
X20000000Y-33775000D03*
%TO.P,C3,2*%
%TO.N,GND*%
X20000000Y-32225000D03*
%TD*%
D23*
%TO.N,SDA*%
X29500000Y-37000000D03*
X12040000Y-899999D03*
X38500000Y-37000000D03*
X2000000Y-51600000D03*
%TO.N,SCL*%
X2000000Y-53500000D03*
X10770000Y-899999D03*
X30500000Y-37000000D03*
X30900000Y-21000000D03*
X35600000Y-37000000D03*
X19000000Y-22600000D03*
%TO.N,SENSOR3V3*%
X14312500Y-36050000D03*
X18000000Y-27900000D03*
X26800000Y-36300000D03*
X18000000Y-28800000D03*
X8000000Y-52400000D03*
X19100000Y-31200000D03*
X28500000Y-37000000D03*
X35600000Y-35600000D03*
X15700000Y-16000000D03*
X7200000Y-48000000D03*
X18900000Y-35200000D03*
X14300000Y-16000000D03*
X18300000Y-21000000D03*
X14800000Y-29800000D03*
%TO.N,GND*%
X10900000Y-21000000D03*
X8000000Y-50500000D03*
X18200000Y-34600000D03*
X8230000Y-899999D03*
X7700000Y-27900000D03*
X21487500Y-40050000D03*
X17800000Y-38800000D03*
X11200000Y-36700000D03*
X30000000Y-37700000D03*
X8200000Y-5500000D03*
X27500000Y-37000000D03*
X15000000Y-31200000D03*
X19687500Y-37000000D03*
X8230000Y-10100000D03*
X18200000Y-30500000D03*
X18200000Y-33000000D03*
X25200000Y-37000000D03*
X12000000Y-16600000D03*
X21000000Y-32200000D03*
X20400000Y-37000000D03*
%TO.N,SENSOR5V*%
X19687500Y-36050000D03*
X16200000Y-33800000D03*
X6960000Y-899999D03*
X11500000Y-10900000D03*
X11100000Y-29000000D03*
X19687500Y-37950000D03*
X6960000Y-10100000D03*
X15900000Y-21200000D03*
X21487500Y-41950000D03*
X16000000Y-33200000D03*
X17000000Y-19900000D03*
X8300000Y-29000000D03*
%TO.N,PM_RESET*%
X9500000Y-899999D03*
%TO.N,PM_SET*%
X12040000Y-10100000D03*
%TO.N,USB5V*%
X26000000Y-29700000D03*
%TO.N,FUSED5V*%
X16512500Y-41000000D03*
%TD*%
%TO.N,SDA*%
D24*
X15000000Y-27200000D02*
X15000000Y-900000D01*
X15000000Y-27200000D02*
X15000000Y-21900000D01*
X2000000Y-48800000D02*
X3800000Y-48800000D01*
X15000000Y-27175000D02*
X15000000Y-27200000D01*
X3800000Y-27200000D02*
X15000000Y-27200000D01*
X3800000Y-48800000D02*
X3800000Y-27200000D01*
X22900000Y-21900000D02*
X22900000Y-21000000D01*
X29500000Y-21000000D02*
X29500000Y-37000000D01*
X12000000Y-900000D02*
X12040000Y-899999D01*
X15000000Y-21900000D02*
X22900000Y-21900000D01*
X27000000Y-21000000D02*
X29500000Y-21000000D01*
X29500000Y-35000000D02*
X29500000Y-37000000D01*
X2000000Y-51600000D02*
X2000000Y-48800000D01*
X22900000Y-21000000D02*
X27000000Y-21000000D01*
X15000000Y-27200000D02*
X15000000Y-27175000D01*
X15000000Y-900000D02*
X12000000Y-900000D01*
X38500000Y-35000000D02*
X38500000Y-37000000D01*
X15000000Y-27175000D02*
X15000000Y-27200000D01*
%TO.N,SCL*%
X35800000Y-37000000D02*
X35800000Y-37300000D01*
X35800000Y-37300000D02*
X35900000Y-37300000D01*
X36200000Y-37600000D02*
X36200000Y-37700000D01*
X30500000Y-21000000D02*
X30500000Y-37000000D01*
X36000000Y-37500000D02*
X36100000Y-37500000D01*
X38900000Y-37600000D02*
X38900000Y-37500000D01*
X30900000Y-21000000D02*
X32000000Y-21000000D01*
X2300000Y-52200000D02*
X2400000Y-52200000D01*
X35900000Y-37400000D02*
X36000000Y-37400000D01*
X2400000Y-52200000D02*
X2400000Y-52100000D01*
X36100000Y-37500000D02*
X36100000Y-37600000D01*
X19000000Y-27175000D02*
X19000000Y-27200000D01*
X2500000Y-52000000D02*
X2600000Y-52000000D01*
X10400000Y-30700000D02*
X10400000Y-28000000D01*
X39100000Y-37300000D02*
X39200000Y-37300000D01*
X35900000Y-37300000D02*
X35900000Y-37400000D01*
X19000000Y-27175000D02*
X19000000Y-27200000D01*
X39000000Y-37500000D02*
X39000000Y-37400000D01*
X39000000Y-37400000D02*
X39100000Y-37400000D01*
X36100000Y-37600000D02*
X36200000Y-37600000D01*
X2400000Y-52100000D02*
X2500000Y-52100000D01*
X36200000Y-37700000D02*
X38800000Y-37700000D01*
X38800000Y-37700000D02*
X38800000Y-37600000D01*
X2500000Y-52100000D02*
X2500000Y-52000000D01*
X38900000Y-37500000D02*
X39000000Y-37500000D01*
X39200000Y-37000000D02*
X39500000Y-37000000D01*
X10770000Y-899999D02*
X10800000Y-900000D01*
X19000000Y-27200000D02*
X19000000Y-22600000D01*
X19000000Y-27200000D02*
X19000000Y-22600000D01*
X2000000Y-53500000D02*
X2000000Y-52300000D01*
X15900000Y-28000000D02*
X15900000Y-27200000D01*
X4300000Y-49300000D02*
X4300000Y-30700000D01*
X10400000Y-28000000D02*
X15900000Y-28000000D01*
X39500000Y-35000000D02*
X39500000Y-37000000D01*
X2000000Y-52300000D02*
X2300000Y-52300000D01*
X2700000Y-51900000D02*
X2700000Y-49300000D01*
X30500000Y-35000000D02*
X30500000Y-37000000D01*
X2300000Y-52300000D02*
X2300000Y-52200000D01*
X10800000Y-900000D02*
X10770000Y-899999D01*
X2600000Y-52000000D02*
X2600000Y-51900000D01*
X2700000Y-49300000D02*
X4300000Y-49300000D01*
X19000000Y-27200000D02*
X19000000Y-27175000D01*
X36000000Y-37400000D02*
X36000000Y-37500000D01*
X32000000Y-21000000D02*
X30500000Y-21000000D01*
X35600000Y-37000000D02*
X35800000Y-37000000D01*
X39200000Y-37300000D02*
X39200000Y-37000000D01*
X2600000Y-51900000D02*
X2700000Y-51900000D01*
X39100000Y-37400000D02*
X39100000Y-37300000D01*
X4300000Y-30700000D02*
X10400000Y-30700000D01*
X15900000Y-27200000D02*
X19000000Y-27200000D01*
X38800000Y-37600000D02*
X38900000Y-37600000D01*
%TO.N,SENSOR3V3*%
X7500000Y-50900000D02*
X7400000Y-50900000D01*
X15000000Y-28800000D02*
X15000000Y-28825000D01*
X22000000Y-21000000D02*
X22000000Y-16000000D01*
X13800000Y-15000000D02*
X13825000Y-15000000D01*
X7200000Y-49000000D02*
X7200000Y-48000000D01*
X13825000Y-15000000D02*
X13800000Y-15000000D01*
X14800000Y-28800000D02*
X15000000Y-28800000D01*
X22000000Y-16000000D02*
X15700000Y-16000000D01*
X19100000Y-33100000D02*
X20000000Y-33100000D01*
X7400000Y-50900000D02*
X7400000Y-50800000D01*
X15000000Y-28825000D02*
X15000000Y-28800000D01*
X18100000Y-27900000D02*
X18000000Y-27900000D01*
X7700000Y-51100000D02*
X7600000Y-51100000D01*
X19000000Y-28000000D02*
X18100000Y-28000000D01*
X7800000Y-15000000D02*
X7825000Y-15000000D01*
X15862500Y-36050000D02*
X14312500Y-36050000D01*
X19000000Y-28800000D02*
X19000000Y-28825000D01*
X26800000Y-35200000D02*
X26800000Y-36300000D01*
X8000000Y-52400000D02*
X8000000Y-51200000D01*
X20000000Y-33800000D02*
X20000000Y-33775000D01*
X7600000Y-51100000D02*
X7600000Y-51000000D01*
X19000000Y-28825000D02*
X19000000Y-28800000D01*
X8000000Y-52400000D02*
X8000000Y-52400000D01*
X18900000Y-35200000D02*
X26800000Y-35200000D01*
X35800000Y-33800000D02*
X37500000Y-33800000D01*
X11400000Y-15900000D02*
X11400000Y-15000000D01*
X13800000Y-15000000D02*
X13000000Y-15000000D01*
X13000000Y-15000000D02*
X13000000Y-15900000D01*
X19000000Y-28825000D02*
X19000000Y-28800000D01*
X18300000Y-21000000D02*
X22000000Y-21000000D01*
X8000000Y-51200000D02*
X7700000Y-51200000D01*
X35800000Y-35600000D02*
X35800000Y-33800000D01*
X15000000Y-28800000D02*
X19000000Y-28800000D01*
X11400000Y-15000000D02*
X7800000Y-15000000D01*
X7600000Y-51000000D02*
X7500000Y-51000000D01*
X20000000Y-33100000D02*
X20000000Y-33800000D01*
X19100000Y-31200000D02*
X19100000Y-33100000D01*
X7500000Y-51000000D02*
X7500000Y-50900000D01*
X7700000Y-51200000D02*
X7700000Y-51100000D01*
X14300000Y-16000000D02*
X14300000Y-15000000D01*
X35600000Y-35600000D02*
X35800000Y-35600000D01*
X37500000Y-35000000D02*
X37500000Y-37000000D01*
X13000000Y-15900000D02*
X11400000Y-15900000D01*
X19000000Y-28800000D02*
X19000000Y-28000000D01*
X7400000Y-50800000D02*
X7300000Y-50800000D01*
X28500000Y-35000000D02*
X28500000Y-37000000D01*
X19000000Y-28800000D02*
X18000000Y-28800000D01*
X18100000Y-28000000D02*
X18100000Y-27900000D01*
X7300000Y-49000000D02*
X7200000Y-49000000D01*
X14300000Y-15000000D02*
X13800000Y-15000000D01*
X14800000Y-29800000D02*
X14800000Y-28800000D01*
X37500000Y-33800000D02*
X37500000Y-37000000D01*
X7300000Y-50800000D02*
X7300000Y-49000000D01*
%TO.N,GND*%
X15000000Y-32225000D02*
X15000000Y-32200000D01*
X25200000Y-37000000D02*
X27500000Y-37000000D01*
X30800000Y-37600000D02*
X30900000Y-37600000D01*
X18500000Y-30800000D02*
X18600000Y-30800000D01*
X6500000Y-29000000D02*
X6525000Y-29000000D01*
X35000000Y-36700000D02*
X35000000Y-36600000D01*
X20000000Y-32225000D02*
X20000000Y-32200000D01*
X8230000Y-10100000D02*
X8200000Y-10100000D01*
X15000000Y-32200000D02*
X15000000Y-32225000D01*
X18600000Y-30800000D02*
X18600000Y-30700000D01*
X31200000Y-37300000D02*
X31200000Y-37000000D01*
X15000000Y-32225000D02*
X15000000Y-32200000D01*
X31200000Y-37000000D02*
X34900000Y-37000000D01*
X17800000Y-38600000D02*
X20100000Y-38600000D01*
X35300000Y-36300000D02*
X36500000Y-36300000D01*
X8200000Y-10100000D02*
X8230000Y-10100000D01*
X6500000Y-29000000D02*
X6500000Y-27900000D01*
X18200000Y-33000000D02*
X18200000Y-34600000D01*
X30900000Y-37600000D02*
X30900000Y-37500000D01*
X31000000Y-37500000D02*
X31000000Y-37400000D01*
X8200000Y-900000D02*
X8230000Y-899999D01*
X30800000Y-37700000D02*
X30800000Y-37600000D01*
X30000000Y-37700000D02*
X30800000Y-37700000D01*
X35000000Y-36600000D02*
X35100000Y-36600000D01*
X18800000Y-30600000D02*
X18800000Y-30500000D01*
X20200000Y-38400000D02*
X20300000Y-38400000D01*
X18600000Y-30700000D02*
X18700000Y-30700000D01*
X36500000Y-35000000D02*
X36500000Y-37000000D01*
X18200000Y-34600000D02*
X18200000Y-30500000D01*
X10900000Y-21000000D02*
X12000000Y-21000000D01*
X6500000Y-27900000D02*
X6500000Y-29000000D01*
X8000000Y-50500000D02*
X8000000Y-35600000D01*
X18400000Y-32200000D02*
X18400000Y-30900000D01*
X35200000Y-36500000D02*
X35200000Y-36400000D01*
X17800000Y-38800000D02*
X17800000Y-38600000D01*
X18700000Y-30700000D02*
X18700000Y-30600000D01*
X18800000Y-30500000D02*
X20000000Y-30500000D01*
X31000000Y-37400000D02*
X31100000Y-37400000D01*
X20000000Y-32200000D02*
X21000000Y-32200000D01*
X20000000Y-32200000D02*
X20000000Y-32225000D01*
X18200000Y-32200000D02*
X18400000Y-32200000D01*
X18500000Y-30900000D02*
X18500000Y-30800000D01*
X15000000Y-31200000D02*
X15000000Y-32200000D01*
X15000000Y-32200000D02*
X15000000Y-31200000D01*
X11200000Y-35600000D02*
X11200000Y-36700000D01*
X35100000Y-36500000D02*
X35200000Y-36500000D01*
X31100000Y-37300000D02*
X31200000Y-37300000D01*
X8230000Y-899999D02*
X8200000Y-900000D01*
X18200000Y-34600000D02*
X18200000Y-32200000D01*
X20200000Y-38500000D02*
X20200000Y-38400000D01*
X19937500Y-40050000D02*
X21487500Y-40050000D01*
X27500000Y-35000000D02*
X27500000Y-37000000D01*
X30900000Y-37500000D02*
X31000000Y-37500000D01*
X8000000Y-35600000D02*
X12000000Y-35600000D01*
X35100000Y-36600000D02*
X35100000Y-36500000D01*
X34900000Y-36700000D02*
X35000000Y-36700000D01*
X20100000Y-38600000D02*
X20100000Y-38500000D01*
X34900000Y-37000000D02*
X34900000Y-36700000D01*
X31100000Y-37400000D02*
X31100000Y-37300000D01*
X20000000Y-30500000D02*
X20000000Y-32200000D01*
X18400000Y-30900000D02*
X18500000Y-30900000D01*
X36500000Y-36300000D02*
X36500000Y-37000000D01*
X20100000Y-38500000D02*
X20200000Y-38500000D01*
X20400000Y-38200000D02*
X20400000Y-37000000D01*
X18137500Y-37000000D02*
X19687500Y-37000000D01*
X15000000Y-32200000D02*
X15000000Y-31200000D01*
X12000000Y-35600000D02*
X11200000Y-35600000D01*
X20300000Y-38400000D02*
X20300000Y-38200000D01*
X6525000Y-29000000D02*
X6500000Y-29000000D01*
X35200000Y-36400000D02*
X35300000Y-36400000D01*
X20300000Y-38200000D02*
X20400000Y-38200000D01*
X35300000Y-36400000D02*
X35300000Y-36300000D01*
X6500000Y-27900000D02*
X7700000Y-27900000D01*
X12000000Y-21000000D02*
X12000000Y-16600000D01*
X8230000Y-10100000D02*
X8200000Y-10100000D01*
X8200000Y-10100000D02*
X8200000Y-5500000D01*
X18700000Y-30600000D02*
X18800000Y-30600000D01*
X7700000Y-27900000D02*
X6500000Y-27900000D01*
%TO.N,SENSOR5V*%
X18137500Y-37950000D02*
X19687500Y-37950000D01*
D25*
X7600000Y-10600000D02*
X7600000Y-10700000D01*
X7500000Y-10600000D02*
X7600000Y-10600000D01*
X17000000Y-19900000D02*
X17000000Y-21000000D01*
X14000000Y-29000000D02*
X11100000Y-29000000D01*
X15000000Y-33775000D02*
X15000000Y-33800000D01*
X7400000Y-10400000D02*
X7500000Y-10400000D01*
X7500000Y-10400000D02*
X7500000Y-10600000D01*
X7000000Y-900000D02*
X6960000Y-899999D01*
X15000000Y-33775000D02*
X15000000Y-33800000D01*
X7700000Y-10800000D02*
X7900000Y-10800000D01*
X15000000Y-33775000D02*
X15000000Y-33800000D01*
D24*
X18137500Y-36050000D02*
X19687500Y-36050000D01*
D25*
X12000000Y-36700000D02*
X12000000Y-38400000D01*
X7700000Y-10700000D02*
X7700000Y-10800000D01*
X14000000Y-33200000D02*
X14000000Y-29000000D01*
X15000000Y-33800000D02*
X15000000Y-33775000D01*
X15000000Y-33200000D02*
X14000000Y-33200000D01*
X7400000Y-10100000D02*
X7400000Y-10400000D01*
X12000000Y-38400000D02*
X12000000Y-38400000D01*
X15900000Y-21000000D02*
X15900000Y-21200000D01*
X16000000Y-33200000D02*
X15000000Y-33200000D01*
X15000000Y-33200000D02*
X15000000Y-33800000D01*
X9500000Y-29000000D02*
X9475000Y-29000000D01*
D24*
X19937500Y-41950000D02*
X21487500Y-41950000D01*
D25*
X7600000Y-10700000D02*
X7700000Y-10700000D01*
X13100000Y-36700000D02*
X12000000Y-36700000D01*
X17000000Y-21000000D02*
X15900000Y-21000000D01*
X15000000Y-33800000D02*
X15000000Y-33200000D01*
X8300000Y-29000000D02*
X9500000Y-29000000D01*
X6960000Y-899999D02*
X7000000Y-900000D01*
X6960000Y-10100000D02*
X7000000Y-10100000D01*
X15000000Y-33800000D02*
X13100000Y-33800000D01*
X7900000Y-10800000D02*
X7900000Y-10900000D01*
X13100000Y-33800000D02*
X13100000Y-36700000D01*
X7000000Y-10100000D02*
X7400000Y-10100000D01*
X7900000Y-10900000D02*
X11500000Y-10900000D01*
X15000000Y-33800000D02*
X16200000Y-33800000D01*
X6960000Y-10100000D02*
X7000000Y-10100000D01*
X7000000Y-10100000D02*
X6960000Y-10100000D01*
%TO.N,PM_RESET*%
D24*
X8500000Y-1500000D02*
X8500000Y-1600000D01*
X8900000Y-900000D02*
X8900000Y-1200000D01*
X8900000Y-1200000D02*
X8800000Y-1200000D01*
X8800000Y-1200000D02*
X8800000Y-1400000D01*
X6200000Y-1600000D02*
X6200000Y-15000000D01*
X8500000Y-1600000D02*
X6200000Y-1600000D01*
X9500000Y-900000D02*
X8900000Y-900000D01*
X6200000Y-15000000D02*
X6175000Y-15000000D01*
X8800000Y-1400000D02*
X8700000Y-1400000D01*
X9500000Y-899999D02*
X9500000Y-900000D01*
X8700000Y-1500000D02*
X8500000Y-1500000D01*
X8700000Y-1400000D02*
X8700000Y-1500000D01*
%TO.N,PM_SET*%
X12200000Y-10100000D02*
X12200000Y-15000000D01*
X12040000Y-10100000D02*
X12000000Y-10100000D01*
X12000000Y-10100000D02*
X12200000Y-10100000D01*
X12200000Y-15000000D02*
X12175000Y-15000000D01*
%TO.N,USB5V*%
D25*
X26400000Y-28000000D02*
X26000000Y-28000000D01*
X26400000Y-28000000D02*
X26400000Y-28000000D01*
X26000000Y-28000000D02*
X26000000Y-29700000D01*
%TO.N,FUSED5V*%
X16500000Y-41000000D02*
X16512500Y-41000000D01*
X23600000Y-28000000D02*
X20000000Y-28000000D01*
X16500000Y-38800000D02*
X16500000Y-41000000D01*
X20000000Y-28000000D02*
X20000000Y-29700000D01*
X20000000Y-29700000D02*
X17000000Y-29700000D01*
D24*
X18062500Y-41000000D02*
X16512500Y-41000000D01*
D25*
X17000000Y-29700000D02*
X17000000Y-38800000D01*
X17000000Y-38800000D02*
X16500000Y-38800000D01*
%TD*%
M02*
