%TF.GenerationSoftware,KiCad,Pcbnew,10.0.6*%
%TF.CreationDate,2026-09-06T13:42:37-05:00*%
%TF.ProjectId,airmon,6169726d-6f6e-42e6-9b69-6361645f7063,rev?*%
%TF.SameCoordinates,Original*%
%TF.FileFunction,Copper,L1,Top*%
%TF.FilePolarity,Positive*%
%FSLAX46Y46*%
G04 Gerber Fmt 4.6, Leading zero omitted, Abs format (unit mm)*
G04 Created by KiCad (PCBNEW 10.0.6) date 2026-09-06 13:42:37*
%MOMM*%
%LPD*%
G01*
G04 APERTURE LIST*
G04 Aperture macros list*
%AMRoundRect*
0 Rectangle with rounded corners*
0 $1 Rounding radius*
0 $2 $3 $4 $5 $6 $7 $8 $9 X,Y pos of 4 corners*
0 Add a 4 corners polygon primitive as box body*
4,1,4,$2,$3,$4,$5,$6,$7,$8,$9,$2,$3,0*
0 Add four circle primitives for the rounded corners*
1,1,$1+$1,$2,$3*
1,1,$1+$1,$4,$5*
1,1,$1+$1,$6,$7*
1,1,$1+$1,$8,$9*
0 Add four rect primitives between the rounded corners*
20,1,$1+$1,$2,$3,$4,$5,0*
20,1,$1+$1,$4,$5,$6,$7,0*
20,1,$1+$1,$6,$7,$8,$9,0*
20,1,$1+$1,$8,$9,$2,$3,0*%
G04 Aperture macros list end*
%TA.AperFunction,SMDPad,CuDef*%
%ADD10R,0.500000X0.300000*%
%TD*%
%TA.AperFunction,SMDPad,CuDef*%
%ADD11R,0.650000X2.600000*%
%TD*%
%TA.AperFunction,SMDPad,CuDef*%
%ADD12RoundRect,0.225000X-0.225000X-0.250000X0.225000X-0.250000X0.225000X0.250000X-0.225000X0.250000X0*%
%TD*%
%TA.AperFunction,ComponentPad*%
%ADD13RoundRect,0.250000X0.350000X0.625000X-0.350000X0.625000X-0.350000X-0.625000X0.350000X-0.625000X0*%
%TD*%
%TA.AperFunction,ComponentPad*%
%ADD14O,1.200000X1.750000*%
%TD*%
%TA.AperFunction,ViaPad*%
%ADD15C,0.600000*%
%TD*%
%TA.AperFunction,Conductor*%
%ADD16C,0.250000*%
%TD*%
%TA.AperFunction,Conductor*%
%ADD17C,0.500000*%
%TD*%
G04 APERTURE END LIST*
D10*
%TO.P,U2,1*%
%TO.N,SDA*%
X4300000Y-51600000D03*
%TO.P,U2,2*%
%TO.N,SCL*%
X4300000Y-52400000D03*
%TO.P,U2,3*%
%TO.N,SENSOR3V3*%
X5700000Y-52400000D03*
%TO.P,U2,4*%
%TO.N,GND*%
X5700000Y-51600000D03*
%TD*%
D11*
%TO.P,J5,1*%
%TO.N,SENSOR5V*%
X6960000Y-3650000D03*
%TO.P,J5,2*%
X6960000Y-7350000D03*
%TO.P,J5,3*%
%TO.N,GND*%
X8230000Y-3650000D03*
%TO.P,J5,4*%
X8230000Y-7350000D03*
%TO.P,J5,5*%
%TO.N,PM_RESET*%
X9500000Y-3650000D03*
%TO.P,J5,6*%
%TO.N,N/C*%
X9500000Y-7350000D03*
%TO.P,J5,7*%
%TO.N,SCL*%
X10770000Y-3650000D03*
%TO.P,J5,8*%
%TO.N,N/C*%
X10770000Y-7350000D03*
%TO.P,J5,9*%
%TO.N,SDA*%
X12040000Y-3650000D03*
%TO.P,J5,10*%
%TO.N,PM_SET*%
X12040000Y-7350000D03*
%TD*%
D12*
%TO.P,C4,1*%
%TO.N,SENSOR3V3*%
X7225000Y-49000000D03*
%TO.P,C4,2*%
%TO.N,GND*%
X8775000Y-49000000D03*
%TD*%
D13*
%TO.P,J2,1*%
%TO.N,SDA*%
X35000000Y-42000000D03*
D14*
%TO.P,J2,2*%
%TO.N,SCL*%
X33000000Y-42000000D03*
%TD*%
D13*
%TO.P,J1,1*%
%TO.N,USB5V*%
X26000000Y-42000000D03*
D14*
%TO.P,J1,2*%
%TO.N,GND*%
X24000000Y-42000000D03*
%TD*%
D15*
%TO.N,SDA*%
X29500000Y-37000000D03*
X12040000Y-899999D03*
X38500000Y-37000000D03*
X2000000Y-51600000D03*
%TO.N,SCL*%
X2000000Y-53500000D03*
X10770000Y-899999D03*
X30500000Y-37000000D03*
X30900000Y-21000000D03*
X35600000Y-37000000D03*
X19000000Y-22600000D03*
%TO.N,SENSOR3V3*%
X14312500Y-36050000D03*
X18000000Y-27900000D03*
X26800000Y-36300000D03*
X18000000Y-28800000D03*
X8000000Y-52400000D03*
X19100000Y-31200000D03*
X28500000Y-37000000D03*
X35600000Y-35600000D03*
X15700000Y-16000000D03*
X7200000Y-48000000D03*
X18900000Y-35200000D03*
X14300000Y-16000000D03*
X18300000Y-21000000D03*
X14800000Y-29800000D03*
%TO.N,GND*%
X10900000Y-21000000D03*
X8000000Y-50500000D03*
X18200000Y-34600000D03*
X8230000Y-899999D03*
X7700000Y-27900000D03*
X21487500Y-40050000D03*
X17800000Y-38800000D03*
X11200000Y-36700000D03*
X30000000Y-37700000D03*
X8200000Y-5500000D03*
X27500000Y-37000000D03*
X15000000Y-31200000D03*
X19687500Y-37000000D03*
X8230000Y-10100000D03*
X18200000Y-30500000D03*
X18200000Y-33000000D03*
X25200000Y-37000000D03*
X12000000Y-16600000D03*
X21000000Y-32200000D03*
X20400000Y-37000000D03*
%TO.N,SENSOR5V*%
X19687500Y-36050000D03*
X16200000Y-33800000D03*
X6960000Y-899999D03*
X11500000Y-10900000D03*
X11100000Y-29000000D03*
X19687500Y-37950000D03*
X6960000Y-10100000D03*
X15900000Y-21200000D03*
X21487500Y-41950000D03*
X16000000Y-33200000D03*
X17000000Y-19900000D03*
X8300000Y-29000000D03*
%TO.N,PM_RESET*%
X9500000Y-899999D03*
%TO.N,PM_SET*%
X12040000Y-10100000D03*
%TO.N,USB5V*%
X26000000Y-29700000D03*
%TO.N,FUSED5V*%
X16512500Y-41000000D03*
%TD*%
%TO.N,SDA*%
D16*
X38200000Y-37300000D02*
X38100000Y-37300000D01*
X37800000Y-37600000D02*
X37800000Y-37700000D01*
X38200000Y-37000000D02*
X38200000Y-37300000D01*
X30000000Y-36500000D02*
X30100000Y-36500000D01*
X29900000Y-36700000D02*
X29900000Y-36600000D01*
X30200000Y-36400000D02*
X30200000Y-36300000D01*
X4300000Y-51600000D02*
X2000000Y-51600000D01*
X37900000Y-37500000D02*
X37900000Y-37600000D01*
X30100000Y-36500000D02*
X30100000Y-36400000D01*
X30200000Y-36300000D02*
X38500000Y-36300000D01*
X38500000Y-36300000D02*
X38500000Y-37000000D01*
X38000000Y-37500000D02*
X37900000Y-37500000D01*
X38000000Y-37400000D02*
X38000000Y-37500000D01*
X38100000Y-37400000D02*
X38000000Y-37400000D01*
X30000000Y-36600000D02*
X30000000Y-36500000D01*
X29800000Y-37000000D02*
X29800000Y-36700000D01*
X35000000Y-37700000D02*
X35000000Y-42000000D01*
X37900000Y-37600000D02*
X37800000Y-37600000D01*
X29900000Y-36600000D02*
X30000000Y-36600000D01*
X38500000Y-37000000D02*
X38200000Y-37000000D01*
X12040000Y-3650000D02*
X12040000Y-899999D01*
X29500000Y-37000000D02*
X29800000Y-37000000D01*
X30100000Y-36400000D02*
X30200000Y-36400000D01*
X38100000Y-37300000D02*
X38100000Y-37400000D01*
X37800000Y-37700000D02*
X35000000Y-37700000D01*
X29800000Y-36700000D02*
X29900000Y-36700000D01*
%TO.N,SCL*%
X19000000Y-22600000D02*
X19000000Y-21000000D01*
X3400000Y-53500000D02*
X2000000Y-53500000D01*
X19000000Y-5300000D02*
X11300000Y-5300000D01*
X33000000Y-37000000D02*
X33000000Y-42000000D01*
X11300000Y-900000D02*
X10800000Y-900000D01*
X19000000Y-22600000D02*
X19000000Y-5300000D01*
X10770000Y-3650000D02*
X10770000Y-899999D01*
X30500000Y-37000000D02*
X33000000Y-37000000D01*
X4300000Y-52400000D02*
X3400000Y-52400000D01*
X30500000Y-37000000D02*
X35600000Y-37000000D01*
X19000000Y-21000000D02*
X30900000Y-21000000D01*
X10800000Y-900000D02*
X10770000Y-899999D01*
X11300000Y-5300000D02*
X11300000Y-900000D01*
X3400000Y-52400000D02*
X3400000Y-53500000D01*
%TO.N,SENSOR3V3*%
X18400000Y-36000000D02*
X18400000Y-35900000D01*
X28800000Y-37000000D02*
X28800000Y-36700000D01*
X29300000Y-36200000D02*
X29400000Y-36200000D01*
X18000000Y-21000000D02*
X18300000Y-21000000D01*
X14300000Y-29800000D02*
X14800000Y-29800000D01*
X29200000Y-36300000D02*
X29300000Y-36300000D01*
X7225000Y-49000000D02*
X7200000Y-49000000D01*
X18500000Y-35800000D02*
X18600000Y-35800000D01*
X7200000Y-49000000D02*
X7200000Y-36000000D01*
X7200000Y-48000000D02*
X7200000Y-49000000D01*
X28500000Y-36300000D02*
X28500000Y-37000000D01*
X28800000Y-36700000D02*
X28900000Y-36700000D01*
X18000000Y-27900000D02*
X18000000Y-21000000D01*
X29700000Y-35800000D02*
X35600000Y-35800000D01*
X19100000Y-28800000D02*
X19100000Y-31200000D01*
X29000000Y-36500000D02*
X29100000Y-36500000D01*
X18700000Y-35700000D02*
X18700000Y-35600000D01*
X18400000Y-35900000D02*
X18500000Y-35900000D01*
X29400000Y-36200000D02*
X29400000Y-36100000D01*
X18700000Y-35600000D02*
X18900000Y-35600000D01*
X29100000Y-36500000D02*
X29100000Y-36400000D01*
X29500000Y-36000000D02*
X29600000Y-36000000D01*
X18500000Y-35900000D02*
X18500000Y-35800000D01*
X15700000Y-16000000D02*
X14300000Y-16000000D01*
X18600000Y-35800000D02*
X18600000Y-35700000D01*
X29200000Y-36400000D02*
X29200000Y-36300000D01*
X14300000Y-36000000D02*
X14312500Y-36050000D01*
X26800000Y-36300000D02*
X28500000Y-36300000D01*
X29700000Y-35900000D02*
X29700000Y-35800000D01*
X29500000Y-36100000D02*
X29500000Y-36000000D01*
X28900000Y-36700000D02*
X28900000Y-36600000D01*
X29100000Y-36400000D02*
X29200000Y-36400000D01*
X29400000Y-36100000D02*
X29500000Y-36100000D01*
X14312500Y-36050000D02*
X14300000Y-36000000D01*
X29000000Y-36600000D02*
X29000000Y-36500000D01*
X29300000Y-36300000D02*
X29300000Y-36200000D01*
X29600000Y-36000000D02*
X29600000Y-35900000D01*
X14312500Y-36050000D02*
X14300000Y-36000000D01*
X18000000Y-28800000D02*
X19100000Y-28800000D01*
X5700000Y-52400000D02*
X8000000Y-52400000D01*
X28500000Y-37000000D02*
X28800000Y-37000000D01*
X7200000Y-36000000D02*
X14300000Y-36000000D01*
X35600000Y-35800000D02*
X35600000Y-35600000D01*
X7200000Y-49000000D02*
X7225000Y-49000000D01*
X29600000Y-35900000D02*
X29700000Y-35900000D01*
X18600000Y-35700000D02*
X18700000Y-35700000D01*
X14300000Y-36000000D02*
X14300000Y-29800000D01*
X28900000Y-36600000D02*
X29000000Y-36600000D01*
X14300000Y-36000000D02*
X18400000Y-36000000D01*
X18900000Y-35600000D02*
X18900000Y-35200000D01*
%TO.N,GND*%
X18200000Y-29500000D02*
X17700000Y-29500000D01*
X15600000Y-34100000D02*
X15500000Y-34100000D01*
X17500000Y-29300000D02*
X17500000Y-29200000D01*
X17400000Y-29100000D02*
X17300000Y-29100000D01*
X16600000Y-20900000D02*
X16500000Y-20900000D01*
X16500000Y-20900000D02*
X16500000Y-20600000D01*
X8000000Y-50500000D02*
X8000000Y-49900000D01*
X27800000Y-37300000D02*
X27900000Y-37300000D01*
X12000000Y-16600000D02*
X12000000Y-11600000D01*
X10800000Y-10100000D02*
X8200000Y-10100000D01*
X17400000Y-29200000D02*
X17400000Y-29100000D01*
X19900000Y-36800000D02*
X19900000Y-36900000D01*
X8230000Y-7350000D02*
X8230000Y-10100000D01*
X20400000Y-36300000D02*
X20300000Y-36300000D01*
X18200000Y-34500000D02*
X18200000Y-34600000D01*
X12000000Y-11600000D02*
X11200000Y-11600000D01*
X6600000Y-51600000D02*
X6600000Y-50500000D01*
X11200000Y-11600000D02*
X11200000Y-11500000D01*
X20400000Y-32200000D02*
X20400000Y-36300000D01*
X10900000Y-11500000D02*
X10900000Y-11200000D01*
X8200000Y-900000D02*
X8230000Y-899999D01*
X18200000Y-34500000D02*
X15900000Y-34500000D01*
X19687500Y-37000000D02*
X19700000Y-37000000D01*
X21487500Y-40050000D02*
X21500000Y-40000000D01*
X15000000Y-32200000D02*
X15000000Y-31200000D01*
X15900000Y-34400000D02*
X15900000Y-34500000D01*
X15500000Y-34100000D02*
X15600000Y-34100000D01*
X8100000Y-49000000D02*
X8800000Y-49000000D01*
X19687500Y-37000000D02*
X19700000Y-37000000D01*
X16600000Y-29000000D02*
X16600000Y-20900000D01*
X15900000Y-34500000D02*
X18200000Y-34500000D01*
X19800000Y-37000000D02*
X19700000Y-37000000D01*
X20300000Y-36300000D02*
X20300000Y-36800000D01*
X15500000Y-33800000D02*
X15300000Y-33800000D01*
X27500000Y-37000000D02*
X27800000Y-37000000D01*
X21500000Y-40000000D02*
X24000000Y-40000000D01*
X19900000Y-36900000D02*
X19800000Y-36900000D01*
X18200000Y-30500000D02*
X18200000Y-29500000D01*
X15500000Y-34100000D02*
X15600000Y-34100000D01*
X19800000Y-36900000D02*
X19800000Y-37000000D01*
X28100000Y-37500000D02*
X28100000Y-37600000D01*
X21000000Y-32200000D02*
X20400000Y-32200000D01*
X6600000Y-50500000D02*
X8000000Y-50500000D01*
X7700000Y-20500000D02*
X7700000Y-27900000D01*
X15900000Y-34400000D02*
X15900000Y-34500000D01*
X11200000Y-11500000D02*
X10900000Y-11500000D01*
X15600000Y-34100000D02*
X15600000Y-34400000D01*
X8000000Y-49900000D02*
X8100000Y-49900000D01*
X24000000Y-40000000D02*
X24000000Y-42000000D01*
X15300000Y-33800000D02*
X15500000Y-33800000D01*
X17600000Y-29400000D02*
X17600000Y-29300000D01*
X8800000Y-49000000D02*
X8775000Y-49000000D01*
X8200000Y-5500000D02*
X8200000Y-900000D01*
X15000000Y-31200000D02*
X15300000Y-31200000D01*
X20300000Y-36800000D02*
X19900000Y-36800000D01*
X18200000Y-34600000D02*
X18200000Y-34500000D01*
X15300000Y-31200000D02*
X15300000Y-33800000D01*
X5700000Y-51600000D02*
X6600000Y-51600000D01*
X15600000Y-34100000D02*
X15600000Y-34400000D01*
X8230000Y-3650000D02*
X8230000Y-899999D01*
X17300000Y-29100000D02*
X17300000Y-29000000D01*
X20400000Y-33000000D02*
X18200000Y-33000000D01*
X7700000Y-27900000D02*
X7700000Y-21000000D01*
X15500000Y-33800000D02*
X15500000Y-34100000D01*
X15500000Y-33800000D02*
X15500000Y-34100000D01*
X15600000Y-34400000D02*
X15900000Y-34400000D01*
X27800000Y-37000000D02*
X27800000Y-37300000D01*
X15900000Y-34400000D02*
X15600000Y-34400000D01*
X11200000Y-36700000D02*
X17800000Y-36700000D01*
X17500000Y-29200000D02*
X17400000Y-29200000D01*
X10800000Y-11200000D02*
X10800000Y-10100000D01*
X17700000Y-29500000D02*
X17700000Y-29400000D01*
X28200000Y-37700000D02*
X30000000Y-37700000D01*
X28200000Y-37600000D02*
X28200000Y-37700000D01*
X17600000Y-29300000D02*
X17500000Y-29300000D01*
X16200000Y-20500000D02*
X7700000Y-20500000D01*
X15300000Y-31200000D02*
X15300000Y-33800000D01*
X19700000Y-37000000D02*
X19687500Y-37000000D01*
X15600000Y-34400000D02*
X15900000Y-34400000D01*
X18200000Y-34500000D02*
X18200000Y-34600000D01*
X28000000Y-37400000D02*
X28000000Y-37500000D01*
X15300000Y-32200000D02*
X15000000Y-32200000D01*
X15300000Y-33800000D02*
X15300000Y-32200000D01*
X19700000Y-37000000D02*
X25200000Y-37000000D01*
X15300000Y-33800000D02*
X15500000Y-33800000D01*
X8100000Y-49900000D02*
X8100000Y-49000000D01*
X10900000Y-11200000D02*
X10800000Y-11200000D01*
X28100000Y-37600000D02*
X28200000Y-37600000D01*
X20400000Y-37000000D02*
X20400000Y-33000000D01*
X15900000Y-34500000D02*
X15900000Y-34400000D01*
X15600000Y-34400000D02*
X15600000Y-34100000D01*
X16500000Y-20600000D02*
X16200000Y-20600000D01*
X19700000Y-37000000D02*
X21500000Y-37000000D01*
X21500000Y-37000000D02*
X21500000Y-40000000D01*
X17800000Y-36700000D02*
X17800000Y-38800000D01*
X8200000Y-10100000D02*
X8230000Y-10100000D01*
X15500000Y-34100000D02*
X15500000Y-33800000D01*
X17700000Y-29400000D02*
X17600000Y-29400000D01*
X7700000Y-21000000D02*
X10900000Y-21000000D01*
X15900000Y-34500000D02*
X18200000Y-34500000D01*
X16200000Y-20600000D02*
X16200000Y-20500000D01*
X21500000Y-40000000D02*
X21487500Y-40050000D01*
X15000000Y-31200000D02*
X15300000Y-31200000D01*
X27900000Y-37300000D02*
X27900000Y-37400000D01*
X27900000Y-37400000D02*
X28000000Y-37400000D01*
X28000000Y-37500000D02*
X28100000Y-37500000D01*
X17300000Y-29000000D02*
X16600000Y-29000000D01*
%TO.N,SENSOR5V*%
D17*
X21500000Y-40900000D02*
X21500000Y-42000000D01*
X19300000Y-36200000D02*
X19300000Y-36300000D01*
X7000000Y-900000D02*
X7000000Y-10100000D01*
X19000000Y-37500000D02*
X19100000Y-37500000D01*
X20900000Y-40600000D02*
X20900000Y-40700000D01*
X19687500Y-36050000D02*
X19700000Y-36000000D01*
X20800000Y-40600000D02*
X20900000Y-40600000D01*
X11100000Y-29000000D02*
X8300000Y-29000000D01*
X19700000Y-37800000D02*
X19700000Y-38000000D01*
X15900000Y-21200000D02*
X15900000Y-33200000D01*
X19000000Y-36600000D02*
X18900000Y-36600000D01*
X20700000Y-40400000D02*
X20800000Y-40400000D01*
X19687500Y-37950000D02*
X19700000Y-38000000D01*
X19700000Y-38000000D02*
X20700000Y-38000000D01*
X19300000Y-37800000D02*
X19700000Y-37800000D01*
X20800000Y-40400000D02*
X20800000Y-40600000D01*
X19700000Y-36000000D02*
X19687500Y-36050000D01*
X21000000Y-40700000D02*
X21000000Y-40800000D01*
X19200000Y-36400000D02*
X19100000Y-36400000D01*
X19200000Y-36300000D02*
X19200000Y-36400000D01*
X19700000Y-38000000D02*
X19687500Y-37950000D01*
X19300000Y-37700000D02*
X19300000Y-37800000D01*
X7000000Y-10100000D02*
X6960000Y-10100000D01*
X19100000Y-37500000D02*
X19100000Y-37600000D01*
D16*
X6960000Y-7350000D02*
X6960000Y-10100000D01*
D17*
X19200000Y-37700000D02*
X19300000Y-37700000D01*
X21300000Y-40900000D02*
X21500000Y-40900000D01*
X21300000Y-40800000D02*
X21300000Y-40900000D01*
X21000000Y-40800000D02*
X21300000Y-40800000D01*
X16200000Y-33800000D02*
X19700000Y-33800000D01*
X21500000Y-42000000D02*
X21487500Y-41950000D01*
X18900000Y-37400000D02*
X19000000Y-37400000D01*
X17000000Y-10900000D02*
X17000000Y-19900000D01*
X19700000Y-33800000D02*
X19700000Y-36000000D01*
X19000000Y-37400000D02*
X19000000Y-37500000D01*
X20900000Y-40700000D02*
X21000000Y-40700000D01*
X18900000Y-36600000D02*
X18900000Y-37400000D01*
X19700000Y-36000000D02*
X19700000Y-36200000D01*
X19100000Y-36400000D02*
X19100000Y-36500000D01*
X19300000Y-36300000D02*
X19200000Y-36300000D01*
X15900000Y-33200000D02*
X16000000Y-33200000D01*
X19700000Y-36200000D02*
X19300000Y-36200000D01*
X6960000Y-899999D02*
X7000000Y-900000D01*
X20700000Y-38000000D02*
X20700000Y-40400000D01*
X19200000Y-37600000D02*
X19200000Y-37700000D01*
D16*
X6960000Y-3650000D02*
X6960000Y-899999D01*
D17*
X11500000Y-10900000D02*
X17000000Y-10900000D01*
X19000000Y-36500000D02*
X19000000Y-36600000D01*
X19100000Y-36500000D02*
X19000000Y-36500000D01*
X19100000Y-37600000D02*
X19200000Y-37600000D01*
%TO.N,PM_RESET*%
D16*
X9500000Y-3650000D02*
X9500000Y-899999D01*
%TO.N,PM_SET*%
X12040000Y-7350000D02*
X12040000Y-10100000D01*
%TO.N,USB5V*%
D17*
X26000000Y-29700000D02*
X26000000Y-42000000D01*
%TO.N,FUSED5V*%
X16500000Y-41000000D02*
X16512500Y-41000000D01*
X16512500Y-41000000D02*
X16500000Y-41000000D01*
%TD*%
M02*
