M48
; DRILL file KiCad 10.0.6 date 2026-09-06T13:42:37
; FORMAT={-:-/ absolute / metric / decimal}
; #@! TF.CreationDate,2026-09-06T13:42:37-05:00
; #@! TF.GenerationSoftware,Kicad,Pcbnew,10.0.6
; #@! TF.FileFunction,Plated,1,2,PTH
FMAT,2
METRIC
; #@! TA.AperFunction,Plated,PTH,ViaDrill
T1C0.300
; #@! TA.AperFunction,Plated,PTH,ComponentDrill
T2C0.750
%
G90
G05
T1
X2.0Y-51.6
X2.0Y-53.5
X6.96Y-0.9
X6.96Y-10.1
X7.2Y-48.0
X7.7Y-27.9
X8.0Y-50.5
X8.0Y-52.4
X8.2Y-5.5
X8.23Y-0.9
X8.23Y-10.1
X8.3Y-29.0
X9.5Y-0.9
X10.77Y-0.9
X10.9Y-21.0
X11.1Y-29.0
X11.2Y-36.7
X11.5Y-10.9
X12.0Y-16.6
X12.04Y-0.9
X12.04Y-10.1
X14.3Y-16.0
X14.312Y-36.05
X14.8Y-29.8
X15.0Y-31.2
X15.7Y-16.0
X15.9Y-21.2
X16.0Y-33.2
X16.2Y-33.8
X16.512Y-41.0
X17.0Y-19.9
X17.8Y-38.8
X18.0Y-27.9
X18.0Y-28.8
X18.2Y-30.5
X18.2Y-33.0
X18.2Y-34.6
X18.3Y-21.0
X18.9Y-35.2
X19.0Y-22.6
X19.1Y-31.2
X19.688Y-36.05
X19.688Y-37.0
X19.688Y-37.95
X20.4Y-37.0
X21.0Y-32.2
X21.488Y-40.05
X21.488Y-41.95
X25.2Y-37.0
X26.0Y-29.7
X26.8Y-36.3
X27.5Y-37.0
X28.5Y-37.0
X29.5Y-37.0
X30.0Y-37.7
X30.5Y-37.0
X30.9Y-21.0
X35.6Y-35.6
X35.6Y-37.0
X38.5Y-37.0
T2
X24.0Y-42.0
X26.0Y-42.0
X33.0Y-42.0
X35.0Y-42.0
M30
