%TF.GenerationSoftware,KiCad,Pcbnew,10.0.6*%
%TF.CreationDate,2026-09-06T13:42:37-05:00*%
%TF.ProjectId,airmon,6169726d-6f6e-42e6-9b69-6361645f7063,rev?*%
%TF.SameCoordinates,Original*%
%TF.FileFunction,Legend,Top*%
%TF.FilePolarity,Positive*%
%FSLAX46Y46*%
G04 Gerber Fmt 4.6, Leading zero omitted, Abs format (unit mm)*
G04 Created by KiCad (PCBNEW 10.0.6) date 2026-09-06 13:42:37*
%MOMM*%
%LPD*%
G01*
G04 APERTURE LIST*
%ADD10C,0.130000*%
%ADD11C,0.120000*%
%ADD12C,0.150000*%
G04 APERTURE END LIST*
D10*
X3552380Y-53563335D02*
X4009523Y-53563335D01*
X3780951Y-54363335D02*
X3780951Y-53563335D01*
X4276190Y-53944287D02*
X4542856Y-53944287D01*
X4657142Y-54363335D02*
X4276190Y-54363335D01*
X4276190Y-54363335D02*
X4276190Y-53563335D01*
X4276190Y-53563335D02*
X4657142Y-53563335D01*
X5000000Y-54363335D02*
X5000000Y-53563335D01*
X5000000Y-53563335D02*
X5266666Y-54134763D01*
X5266666Y-54134763D02*
X5533333Y-53563335D01*
X5533333Y-53563335D02*
X5533333Y-54363335D01*
X5914286Y-54363335D02*
X5914286Y-53563335D01*
X5914286Y-53563335D02*
X6219048Y-53563335D01*
X6219048Y-53563335D02*
X6295238Y-53601430D01*
X6295238Y-53601430D02*
X6333333Y-53639525D01*
X6333333Y-53639525D02*
X6371429Y-53715716D01*
X6371429Y-53715716D02*
X6371429Y-53830001D01*
X6371429Y-53830001D02*
X6333333Y-53906192D01*
X6333333Y-53906192D02*
X6295238Y-53944287D01*
X6295238Y-53944287D02*
X6219048Y-53982382D01*
X6219048Y-53982382D02*
X5914286Y-53982382D01*
X21209524Y-29363335D02*
X21209524Y-28563335D01*
X21209524Y-28563335D02*
X21514286Y-28563335D01*
X21514286Y-28563335D02*
X21590476Y-28601430D01*
X21590476Y-28601430D02*
X21628571Y-28639525D01*
X21628571Y-28639525D02*
X21666667Y-28715716D01*
X21666667Y-28715716D02*
X21666667Y-28830001D01*
X21666667Y-28830001D02*
X21628571Y-28906192D01*
X21628571Y-28906192D02*
X21590476Y-28944287D01*
X21590476Y-28944287D02*
X21514286Y-28982382D01*
X21514286Y-28982382D02*
X21209524Y-28982382D01*
X22009524Y-29363335D02*
X22009524Y-28563335D01*
X22009524Y-28563335D02*
X22276190Y-29134763D01*
X22276190Y-29134763D02*
X22542857Y-28563335D01*
X22542857Y-28563335D02*
X22542857Y-29363335D01*
X23685715Y-28563335D02*
X23838096Y-28563335D01*
X23838096Y-28563335D02*
X23914286Y-28601430D01*
X23914286Y-28601430D02*
X23990477Y-28677620D01*
X23990477Y-28677620D02*
X24028572Y-28830001D01*
X24028572Y-28830001D02*
X24028572Y-29096668D01*
X24028572Y-29096668D02*
X23990477Y-29249049D01*
X23990477Y-29249049D02*
X23914286Y-29325240D01*
X23914286Y-29325240D02*
X23838096Y-29363335D01*
X23838096Y-29363335D02*
X23685715Y-29363335D01*
X23685715Y-29363335D02*
X23609524Y-29325240D01*
X23609524Y-29325240D02*
X23533334Y-29249049D01*
X23533334Y-29249049D02*
X23495238Y-29096668D01*
X23495238Y-29096668D02*
X23495238Y-28830001D01*
X23495238Y-28830001D02*
X23533334Y-28677620D01*
X23533334Y-28677620D02*
X23609524Y-28601430D01*
X23609524Y-28601430D02*
X23685715Y-28563335D01*
X24371429Y-29363335D02*
X24371429Y-28563335D01*
X24371429Y-28563335D02*
X24676191Y-28563335D01*
X24676191Y-28563335D02*
X24752381Y-28601430D01*
X24752381Y-28601430D02*
X24790476Y-28639525D01*
X24790476Y-28639525D02*
X24828572Y-28715716D01*
X24828572Y-28715716D02*
X24828572Y-28830001D01*
X24828572Y-28830001D02*
X24790476Y-28906192D01*
X24790476Y-28906192D02*
X24752381Y-28944287D01*
X24752381Y-28944287D02*
X24676191Y-28982382D01*
X24676191Y-28982382D02*
X24371429Y-28982382D01*
X25057143Y-28563335D02*
X25514286Y-28563335D01*
X25285714Y-29363335D02*
X25285714Y-28563335D01*
X25780953Y-29363335D02*
X25780953Y-28563335D01*
X26314286Y-28563335D02*
X26466667Y-28563335D01*
X26466667Y-28563335D02*
X26542857Y-28601430D01*
X26542857Y-28601430D02*
X26619048Y-28677620D01*
X26619048Y-28677620D02*
X26657143Y-28830001D01*
X26657143Y-28830001D02*
X26657143Y-29096668D01*
X26657143Y-29096668D02*
X26619048Y-29249049D01*
X26619048Y-29249049D02*
X26542857Y-29325240D01*
X26542857Y-29325240D02*
X26466667Y-29363335D01*
X26466667Y-29363335D02*
X26314286Y-29363335D01*
X26314286Y-29363335D02*
X26238095Y-29325240D01*
X26238095Y-29325240D02*
X26161905Y-29249049D01*
X26161905Y-29249049D02*
X26123809Y-29096668D01*
X26123809Y-29096668D02*
X26123809Y-28830001D01*
X26123809Y-28830001D02*
X26161905Y-28677620D01*
X26161905Y-28677620D02*
X26238095Y-28601430D01*
X26238095Y-28601430D02*
X26314286Y-28563335D01*
X27000000Y-29363335D02*
X27000000Y-28563335D01*
X27000000Y-28563335D02*
X27457143Y-29363335D01*
X27457143Y-29363335D02*
X27457143Y-28563335D01*
X27799999Y-29134763D02*
X28180952Y-29134763D01*
X27723809Y-29363335D02*
X27990476Y-28563335D01*
X27990476Y-28563335D02*
X28257142Y-29363335D01*
X28904761Y-29363335D02*
X28523809Y-29363335D01*
X28523809Y-29363335D02*
X28523809Y-28563335D01*
X21442857Y-25187835D02*
X21966667Y-25187835D01*
X21338095Y-25502120D02*
X21704762Y-24402120D01*
X21704762Y-24402120D02*
X22071429Y-25502120D01*
X22438095Y-25502120D02*
X22438095Y-24768787D01*
X22438095Y-24402120D02*
X22385714Y-24454501D01*
X22385714Y-24454501D02*
X22438095Y-24506882D01*
X22438095Y-24506882D02*
X22490476Y-24454501D01*
X22490476Y-24454501D02*
X22438095Y-24402120D01*
X22438095Y-24402120D02*
X22438095Y-24506882D01*
X22961905Y-25502120D02*
X22961905Y-24768787D01*
X22961905Y-24978311D02*
X23014286Y-24873549D01*
X23014286Y-24873549D02*
X23066667Y-24821168D01*
X23066667Y-24821168D02*
X23171429Y-24768787D01*
X23171429Y-24768787D02*
X23276191Y-24768787D01*
X23642857Y-25502120D02*
X23642857Y-24402120D01*
X23642857Y-24402120D02*
X24009524Y-25187835D01*
X24009524Y-25187835D02*
X24376191Y-24402120D01*
X24376191Y-24402120D02*
X24376191Y-25502120D01*
X25057143Y-25502120D02*
X24952381Y-25449740D01*
X24952381Y-25449740D02*
X24900000Y-25397359D01*
X24900000Y-25397359D02*
X24847619Y-25292597D01*
X24847619Y-25292597D02*
X24847619Y-24978311D01*
X24847619Y-24978311D02*
X24900000Y-24873549D01*
X24900000Y-24873549D02*
X24952381Y-24821168D01*
X24952381Y-24821168D02*
X25057143Y-24768787D01*
X25057143Y-24768787D02*
X25214286Y-24768787D01*
X25214286Y-24768787D02*
X25319048Y-24821168D01*
X25319048Y-24821168D02*
X25371429Y-24873549D01*
X25371429Y-24873549D02*
X25423810Y-24978311D01*
X25423810Y-24978311D02*
X25423810Y-25292597D01*
X25423810Y-25292597D02*
X25371429Y-25397359D01*
X25371429Y-25397359D02*
X25319048Y-25449740D01*
X25319048Y-25449740D02*
X25214286Y-25502120D01*
X25214286Y-25502120D02*
X25057143Y-25502120D01*
X25895238Y-24768787D02*
X25895238Y-25502120D01*
X25895238Y-24873549D02*
X25947619Y-24821168D01*
X25947619Y-24821168D02*
X26052381Y-24768787D01*
X26052381Y-24768787D02*
X26209524Y-24768787D01*
X26209524Y-24768787D02*
X26314286Y-24821168D01*
X26314286Y-24821168D02*
X26366667Y-24925930D01*
X26366667Y-24925930D02*
X26366667Y-25502120D01*
X27728571Y-25502120D02*
X27728571Y-24768787D01*
X27728571Y-24978311D02*
X27780952Y-24873549D01*
X27780952Y-24873549D02*
X27833333Y-24821168D01*
X27833333Y-24821168D02*
X27938095Y-24768787D01*
X27938095Y-24768787D02*
X28042857Y-24768787D01*
X28619047Y-24402120D02*
X28723809Y-24402120D01*
X28723809Y-24402120D02*
X28828571Y-24454501D01*
X28828571Y-24454501D02*
X28880952Y-24506882D01*
X28880952Y-24506882D02*
X28933333Y-24611644D01*
X28933333Y-24611644D02*
X28985714Y-24821168D01*
X28985714Y-24821168D02*
X28985714Y-25083073D01*
X28985714Y-25083073D02*
X28933333Y-25292597D01*
X28933333Y-25292597D02*
X28880952Y-25397359D01*
X28880952Y-25397359D02*
X28828571Y-25449740D01*
X28828571Y-25449740D02*
X28723809Y-25502120D01*
X28723809Y-25502120D02*
X28619047Y-25502120D01*
X28619047Y-25502120D02*
X28514285Y-25449740D01*
X28514285Y-25449740D02*
X28461904Y-25397359D01*
X28461904Y-25397359D02*
X28409523Y-25292597D01*
X28409523Y-25292597D02*
X28357142Y-25083073D01*
X28357142Y-25083073D02*
X28357142Y-24821168D01*
X28357142Y-24821168D02*
X28409523Y-24611644D01*
X28409523Y-24611644D02*
X28461904Y-24506882D01*
X28461904Y-24506882D02*
X28514285Y-24454501D01*
X28514285Y-24454501D02*
X28619047Y-24402120D01*
X29457142Y-25397359D02*
X29509523Y-25449740D01*
X29509523Y-25449740D02*
X29457142Y-25502120D01*
X29457142Y-25502120D02*
X29404761Y-25449740D01*
X29404761Y-25449740D02*
X29457142Y-25397359D01*
X29457142Y-25397359D02*
X29457142Y-25502120D01*
X30557143Y-25502120D02*
X29928571Y-25502120D01*
X30242857Y-25502120D02*
X30242857Y-24402120D01*
X30242857Y-24402120D02*
X30138095Y-24559263D01*
X30138095Y-24559263D02*
X30033333Y-24664025D01*
X30033333Y-24664025D02*
X29928571Y-24716406D01*
D11*
X4390476Y-49863855D02*
X4390476Y-50511474D01*
X4390476Y-50511474D02*
X4428571Y-50587664D01*
X4428571Y-50587664D02*
X4466666Y-50625760D01*
X4466666Y-50625760D02*
X4542857Y-50663855D01*
X4542857Y-50663855D02*
X4695238Y-50663855D01*
X4695238Y-50663855D02*
X4771428Y-50625760D01*
X4771428Y-50625760D02*
X4809523Y-50587664D01*
X4809523Y-50587664D02*
X4847619Y-50511474D01*
X4847619Y-50511474D02*
X4847619Y-49863855D01*
X5190475Y-49940045D02*
X5228571Y-49901950D01*
X5228571Y-49901950D02*
X5304761Y-49863855D01*
X5304761Y-49863855D02*
X5495237Y-49863855D01*
X5495237Y-49863855D02*
X5571428Y-49901950D01*
X5571428Y-49901950D02*
X5609523Y-49940045D01*
X5609523Y-49940045D02*
X5647618Y-50016236D01*
X5647618Y-50016236D02*
X5647618Y-50092426D01*
X5647618Y-50092426D02*
X5609523Y-50206712D01*
X5609523Y-50206712D02*
X5152380Y-50663855D01*
X5152380Y-50663855D02*
X5647618Y-50663855D01*
X9233333Y-563855D02*
X9233333Y-1135283D01*
X9233333Y-1135283D02*
X9195238Y-1249569D01*
X9195238Y-1249569D02*
X9119047Y-1325760D01*
X9119047Y-1325760D02*
X9004762Y-1363855D01*
X9004762Y-1363855D02*
X8928571Y-1363855D01*
X9995238Y-563855D02*
X9614286Y-563855D01*
X9614286Y-563855D02*
X9576190Y-944807D01*
X9576190Y-944807D02*
X9614286Y-906712D01*
X9614286Y-906712D02*
X9690476Y-868617D01*
X9690476Y-868617D02*
X9880952Y-868617D01*
X9880952Y-868617D02*
X9957143Y-906712D01*
X9957143Y-906712D02*
X9995238Y-944807D01*
X9995238Y-944807D02*
X10033333Y-1020998D01*
X10033333Y-1020998D02*
X10033333Y-1211474D01*
X10033333Y-1211474D02*
X9995238Y-1287664D01*
X9995238Y-1287664D02*
X9957143Y-1325760D01*
X9957143Y-1325760D02*
X9880952Y-1363855D01*
X9880952Y-1363855D02*
X9690476Y-1363855D01*
X9690476Y-1363855D02*
X9614286Y-1325760D01*
X9614286Y-1325760D02*
X9576190Y-1287664D01*
X7866667Y-47857664D02*
X7828571Y-47895760D01*
X7828571Y-47895760D02*
X7714286Y-47933855D01*
X7714286Y-47933855D02*
X7638095Y-47933855D01*
X7638095Y-47933855D02*
X7523809Y-47895760D01*
X7523809Y-47895760D02*
X7447619Y-47819569D01*
X7447619Y-47819569D02*
X7409524Y-47743379D01*
X7409524Y-47743379D02*
X7371428Y-47590998D01*
X7371428Y-47590998D02*
X7371428Y-47476712D01*
X7371428Y-47476712D02*
X7409524Y-47324331D01*
X7409524Y-47324331D02*
X7447619Y-47248140D01*
X7447619Y-47248140D02*
X7523809Y-47171950D01*
X7523809Y-47171950D02*
X7638095Y-47133855D01*
X7638095Y-47133855D02*
X7714286Y-47133855D01*
X7714286Y-47133855D02*
X7828571Y-47171950D01*
X7828571Y-47171950D02*
X7866667Y-47210045D01*
X8552381Y-47400521D02*
X8552381Y-47933855D01*
X8361905Y-47095760D02*
X8171428Y-47667188D01*
X8171428Y-47667188D02*
X8666667Y-47667188D01*
X38390476Y-43213855D02*
X38390476Y-42413855D01*
X38390476Y-42794807D02*
X38847619Y-42794807D01*
X38847619Y-43213855D02*
X38847619Y-42413855D01*
X39190475Y-42490045D02*
X39228571Y-42451950D01*
X39228571Y-42451950D02*
X39304761Y-42413855D01*
X39304761Y-42413855D02*
X39495237Y-42413855D01*
X39495237Y-42413855D02*
X39571428Y-42451950D01*
X39571428Y-42451950D02*
X39609523Y-42490045D01*
X39609523Y-42490045D02*
X39647618Y-42566236D01*
X39647618Y-42566236D02*
X39647618Y-42642426D01*
X39647618Y-42642426D02*
X39609523Y-42756712D01*
X39609523Y-42756712D02*
X39152380Y-43213855D01*
X39152380Y-43213855D02*
X39647618Y-43213855D01*
X16390476Y-42213855D02*
X16390476Y-41413855D01*
X16390476Y-41794807D02*
X16847619Y-41794807D01*
X16847619Y-42213855D02*
X16847619Y-41413855D01*
X17647618Y-42213855D02*
X17190475Y-42213855D01*
X17419047Y-42213855D02*
X17419047Y-41413855D01*
X17419047Y-41413855D02*
X17342856Y-41528140D01*
X17342856Y-41528140D02*
X17266666Y-41604331D01*
X17266666Y-41604331D02*
X17190475Y-41642426D01*
%TO.C,U2*%
X4250000Y-51140000D02*
X5750000Y-51140000D01*
X4250000Y-52860000D02*
X5750000Y-52860000D01*
X3800000Y-51400000D02*
X3520000Y-51400000D01*
X3800000Y-51120000D01*
X3800000Y-51400000D01*
G36*
X3800000Y-51400000D02*
G01*
X3520000Y-51400000D01*
X3800000Y-51120000D01*
X3800000Y-51400000D01*
G37*
%TO.C,J5*%
D12*
X4230000Y-2000000D02*
X14770000Y-2000000D01*
X14770000Y-9000000D01*
X4230000Y-9000000D01*
X4230000Y-2000000D01*
X6200000Y-1700000D02*
G75*
G02*
X5800000Y-1700000I-200000J0D01*
G01*
X5800000Y-1700000D02*
G75*
G02*
X6200000Y-1700000I200000J0D01*
G01*
%TO.C,C4*%
D11*
X7859420Y-48490000D02*
X8140580Y-48490000D01*
X7859420Y-49510000D02*
X8140580Y-49510000D01*
%TD*%
M02*
